<?xml version="1.0" standalone="no"?>
<!DOCTYPE svg PUBLIC "-//W3C//DTD SVG 20010904//EN"
 "http://www.w3.org/TR/2001/REC-SVG-20010904/DTD/svg10.dtd">
<svg version="1.0" xmlns="http://www.w3.org/2000/svg"
 width="1024.000000pt" height="1024.000000pt" viewBox="0 0 1024.000000 1024.000000"
 preserveAspectRatio="xMidYMid meet">

<g transform="translate(0.000000,1024.000000) scale(0.100000,-0.100000)"
fill="#000000" stroke="none">
<path d="M3158 7713 c7 -3 16 -2 19 1 4 3 -2 6 -13 5 -11 0 -14 -3 -6 -6z"/>
<path d="M3910 7690 c0 -5 7 -10 16 -10 8 0 12 5 9 10 -3 6 -10 10 -16 10 -5
0 -9 -4 -9 -10z"/>
<path d="M3060 7665 c-13 -14 -21 -28 -17 -31 4 -4 9 1 13 10 3 9 11 13 18 9
6 -3 8 -3 4 2 -4 4 -3 14 3 22 20 23 4 14 -21 -12z"/>
<path d="M3957 7669 c4 -13 8 -18 11 -10 2 7 -1 18 -6 23 -8 8 -9 4 -5 -13z"/>
<path d="M3985 7650 c3 -5 8 -10 11 -10 2 0 4 5 4 10 0 6 -5 10 -11 10 -5 0
-7 -4 -4 -10z"/>
<path d="M3080 7615 c0 -8 9 -15 20 -15 11 0 20 7 20 15 0 8 -9 15 -20 15 -11
0 -20 -7 -20 -15z"/>
<path d="M3160 7615 c0 -8 9 -15 20 -15 14 0 20 -7 20 -21 0 -19 -5 -20 -83
-17 -74 3 -83 5 -79 21 2 9 -1 17 -8 17 -9 0 -10 -9 -5 -32 4 -18 7 -41 7 -50
-1 -10 6 -18 14 -18 8 0 14 -7 14 -15 0 -8 1 -18 1 -22 2 -10 49 -38 80 -48
22 -7 23 -7 9 10 -14 17 -14 17 8 6 12 -7 20 -16 17 -22 -4 -5 109 -9 299 -9
168 0 305 -3 305 -7 -3 -21 2 -33 13 -27 7 5 8 3 4 -5 -5 -7 -2 -26 4 -42 11
-25 15 -28 29 -17 14 12 14 11 3 -4 -16 -19 -22 0 131 -381 46 -114 87 -204
92 -200 4 5 5 3 1 -4 -9 -16 45 -153 57 -146 6 3 7 1 3 -5 -10 -17 362 -960
402 -1017 38 -54 117 -112 176 -130 75 -23 1248 -22 1324 0 106 32 183 118
225 253 13 42 61 191 106 330 44 140 79 258 76 262 -3 5 0 10 7 12 6 2 11 18
11 36 0 17 4 29 8 27 11 -8 17 31 7 48 -7 13 -5 15 7 11 14 -6 19 6 18 44 -1
6 3 12 9 12 5 0 7 4 3 9 -3 5 -1 12 5 16 11 7 -5 46 -18 44 -27 -4 -42 3 -42
21 0 13 7 20 20 20 14 0 20 7 20 24 0 19 -4 23 -20 19 -11 -3 -20 -14 -20 -24
0 -12 -7 -19 -20 -19 -18 0 -20 7 -20 80 0 73 -2 80 -20 80 -13 0 -20 7 -20
20 0 20 -7 20 -300 20 -293 0 -300 0 -300 20 0 17 -7 20 -40 20 -33 0 -40 3
-40 20 0 17 -7 20 -40 20 -29 0 -40 -4 -40 -15 0 -11 -11 -15 -40 -15 -29 0
-40 4 -40 15 0 12 -16 15 -80 15 l-80 0 -1 30 c-2 51 -3 53 -28 57 -20 3 -22
1 -11 -11 21 -26 1 -36 -70 -34 l-70 1 0 34 c0 28 4 33 23 33 13 0 38 -7 54
-15 27 -14 34 -14 59 0 26 13 27 15 7 15 -12 0 -25 -5 -28 -11 -5 -7 -15 -5
-30 5 -16 10 -59 17 -139 20 -64 3 -121 8 -126 11 -14 9 -81 2 -87 -9 -3 -5
-2 -7 3 -4 5 3 18 2 29 -3 19 -7 19 -8 -2 -8 -19 -1 -23 -7 -23 -31 0 -16 -4
-30 -10 -30 -5 0 -10 16 -10 35 0 27 -4 35 -17 35 -10 0 -25 5 -33 10 -11 7
-5 8 20 4 29 -4 32 -3 17 6 -11 7 -42 10 -73 8 -30 -2 -54 -1 -54 4 0 4 -19 7
-42 7 l-43 -1 40 -9 c22 -5 46 -10 53 -11 27 -3 -6 -18 -48 -22 -33 -3 -37 -2
-15 3 l30 7 -38 8 c-21 5 -41 15 -44 23 -4 10 -23 14 -72 13 -36 -1 -97 6
-136 16 -38 9 -78 17 -87 17 -9 1 -15 3 -13 6 8 7 -69 50 -79 44 -5 -4 -6 -2
-3 4 8 13 -31 45 -45 37 -6 -4 -8 -3 -4 4 3 5 3 12 -1 15 -5 2 -3 2 4 1 8 -2
6 8 -5 31 -9 19 -22 33 -29 30 -7 -2 -10 2 -7 10 10 25 -16 84 -39 91 -21 7
-22 7 -2 15 11 4 14 8 7 8 -7 1 -10 6 -7 11 7 12 -24 101 -38 111 -5 4 -6 12
-3 18 4 6 2 11 -4 11 -6 0 -9 3 -7 8 3 4 1 16 -3 27 -5 14 -17 20 -44 21 -20
0 -32 -2 -26 -6 17 -10 -13 -20 -62 -20 -31 0 -41 4 -45 20 -5 19 -14 20 -194
20 -182 0 -189 1 -189 20 0 19 -7 20 -160 20 -136 0 -160 2 -160 15 0 8 -9 15
-20 15 -11 0 -20 -7 -20 -15z m897 -97 c-3 -8 -6 -5 -6 6 -1 11 2 17 5 13 3
-3 4 -12 1 -19z m758 -548 c-3 -5 -10 -10 -16 -10 -5 0 -9 5 -9 10 0 6 7 10
16 10 8 0 12 -4 9 -10z m275 -32 c0 -10 7 -18 15 -18 8 0 15 7 15 15 0 8 9 15
20 15 16 0 20 -7 20 -30 0 -29 -1 -30 -50 -30 -49 0 -50 1 -50 29 0 16 -6 32
-12 34 -7 3 -1 5 15 4 19 -1 27 -7 27 -19z m-440 -244 c107 -9 197 -17 198
-19 4 -3 23 -127 41 -254 5 -41 8 -79 5 -83 -9 -14 -328 -10 -346 5 -9 6 -39
80 -67 162 -29 83 -56 160 -61 173 -6 13 -10 25 -10 27 0 8 32 6 240 -11z
m752 -59 c43 0 78 -3 78 -7 0 -5 22 -8 48 -8 27 0 51 -2 53 -5 6 -5 -17 -250
-25 -271 -4 -11 -45 -14 -225 -14 l-219 0 -11 48 c-11 46 -41 241 -41 263 0 8
37 9 133 3 72 -5 167 -8 209 -9z m711 -48 c64 0 67 -1 67 -24 0 -44 -60 -213
-80 -223 -10 -6 -89 -10 -176 -10 l-157 0 8 123 c4 67 7 128 8 135 0 10 28 11
131 5 72 -4 161 -7 199 -6z m342 -216 c3 -5 1 -12 -5 -16 -5 -3 -10 1 -10 9 0
18 6 21 15 7z m-1521 -269 c3 -5 14 -84 26 -177 16 -135 18 -170 8 -177 -21
-13 -90 -9 -146 7 -79 24 -102 54 -151 200 -23 70 -40 134 -37 141 4 11 36 14
150 14 80 0 147 -4 150 -8z m592 -114 c-11 -210 -15 -236 -40 -242 -35 -9
-260 -6 -276 4 -10 6 -23 60 -40 180 -14 94 -24 173 -21 175 2 3 90 5 194 5
l190 0 -7 -122z m514 105 c0 -32 -81 -262 -102 -288 -32 -41 -76 -58 -150 -59
-36 -1 -70 2 -73 6 -8 7 15 326 24 356 1 1 69 2 151 2 136 0 150 -2 150 -17z"/>
<path d="M4006 7622 c-7 -11 -1 -16 16 -13 4 0 5 -6 2 -14 -4 -8 -11 -15 -17
-15 -6 0 -8 -2 -5 -5 3 -3 15 -2 27 3 22 8 22 8 3 32 -13 16 -21 20 -26 12z"/>
<path d="M5488 6923 c6 -2 18 -2 25 0 6 3 1 5 -13 5 -14 0 -19 -2 -12 -5z"/>
<path d="M5870 6896 c0 -2 7 -6 15 -10 8 -3 15 -1 15 4 0 6 -7 10 -15 10 -8 0
-15 -2 -15 -4z"/>
<path d="M6295 6850 c-8 -13 5 -13 25 0 13 8 13 10 -2 10 -9 0 -20 -4 -23 -10z"/>
<path d="M6340 6840 c0 -5 5 -10 10 -10 6 0 10 5 10 10 0 6 -4 10 -10 10 -5 0
-10 -4 -10 -10z"/>
<path d="M6388 6813 c7 -3 16 -2 19 1 4 3 -2 6 -13 5 -11 0 -14 -3 -6 -6z"/>
<path d="M6435 6790 c11 -14 23 -27 26 -30 3 -3 9 -12 12 -20 5 -13 6 -13 6 1
1 8 -14 28 -31 45 -27 24 -29 25 -13 4z"/>
<path d="M6490 6690 c-9 -6 -10 -10 -3 -10 6 0 15 5 18 10 8 12 4 12 -15 0z"/>
<path d="M6511 6534 c0 -11 3 -14 6 -6 3 7 2 16 -1 19 -3 4 -6 -2 -5 -13z"/>
<path d="M4620 5201 c-124 -40 -199 -134 -207 -261 -11 -158 98 -287 258 -306
197 -23 362 174 305 368 -35 122 -133 199 -260 204 -39 2 -82 0 -96 -5z"/>
<path d="M5837 5196 c-60 -22 -105 -57 -142 -111 -82 -119 -63 -281 45 -379
59 -54 102 -69 190 -70 59 -1 85 4 121 22 138 68 202 221 153 366 -19 55 -91
133 -149 161 -51 24 -166 30 -218 11z"/>
<path d="M5134 5184 c-7 -3 -2 -28 13 -72 12 -37 23 -77 23 -89 0 -23 1 -23
143 -23 l144 0 27 78 c14 42 29 85 32 95 6 16 -7 17 -182 16 -104 0 -194 -3
-200 -5z"/>
<path d="M5135 4724 c-31 -72 -120 -177 -181 -215 -19 -12 -33 -23 -30 -26 16
-17 174 -35 326 -38 172 -3 312 9 409 35 l44 12 -29 17 c-57 35 -149 146 -179
214 l-28 67 -151 0 -152 0 -29 -66z"/>
<path d="M2675 4041 c-48 -12 -74 -29 -90 -61 -14 -26 -15 -98 -13 -551 l3
-521 33 -29 c28 -25 40 -29 93 -29 34 0 73 7 89 15 59 31 60 35 60 319 0 243
1 262 21 303 31 64 71 88 146 88 67 0 98 -16 137 -69 20 -26 21 -44 26 -310 5
-310 5 -306 67 -333 45 -18 100 -16 150 6 62 29 65 47 61 376 -5 324 -9 344
-89 426 -129 133 -364 154 -484 43 -14 -13 -28 -24 -31 -24 -2 0 -4 63 -4 139
0 135 -1 140 -25 170 -14 16 -34 32 -43 35 -40 11 -79 14 -107 7z"/>
<path d="M1980 3800 c-209 -44 -333 -241 -256 -407 45 -96 129 -139 355 -182
169 -33 199 -54 147 -106 -56 -56 -200 -58 -353 -6 -50 17 -99 31 -109 31 -41
-1 -94 -71 -94 -124 0 -32 19 -50 89 -85 109 -55 162 -66 326 -66 135 0 156 3
210 24 79 32 165 116 188 185 40 118 11 225 -77 284 -57 38 -110 55 -266 82
-137 25 -175 43 -175 86 0 24 7 33 45 52 38 20 55 23 110 19 36 -3 101 -17
145 -31 44 -14 92 -26 107 -26 30 0 72 44 95 99 13 31 13 37 -4 60 -24 32
-108 74 -193 96 -77 20 -227 28 -290 15z"/>
<path d="M3925 3799 c-140 -21 -291 -130 -358 -256 -54 -103 -65 -197 -41
-328 10 -52 73 -161 122 -210 224 -224 604 -189 784 73 122 177 94 427 -66
580 -121 116 -276 166 -441 141z m190 -253 c121 -56 175 -198 118 -311 -52
-103 -167 -160 -272 -135 -137 33 -217 168 -177 301 41 140 196 208 331 145z"/>
<path d="M4660 3800 c-19 -5 -47 -22 -62 -39 -32 -36 -30 22 -28 -685 1 -445
1 -445 66 -466 43 -14 114 -7 148 15 40 26 46 57 46 221 l0 155 43 -34 c57
-47 91 -63 163 -77 108 -21 237 20 334 107 54 49 126 177 136 244 7 42 24 53
24 17 1 -41 49 -161 87 -216 69 -100 195 -172 328 -186 114 -13 304 30 366 82
28 23 31 30 25 68 -13 100 -42 118 -145 89 -37 -10 -88 -21 -116 -23 -109 -9
-227 43 -265 117 l-20 41 299 0 c341 0 311 -10 311 99 0 197 -88 359 -234 431
-255 126 -537 -6 -620 -289 -9 -30 -16 -67 -16 -83 0 -15 -4 -28 -10 -28 -5 0
-10 13 -10 28 0 37 -26 112 -58 171 -38 67 -122 145 -198 182 -56 28 -80 34
-153 37 -74 4 -95 1 -139 -18 -48 -21 -88 -56 -119 -106 -10 -16 -12 -11 -12
34 -1 45 -5 58 -30 83 -17 16 -40 29 -54 29 -14 0 -31 2 -39 4 -7 2 -29 0 -48
-4z m1393 -224 c21 -8 48 -22 59 -33 22 -19 78 -102 78 -115 0 -4 -92 -8 -205
-8 l-205 0 15 38 c44 104 154 155 258 118z m-938 -35 c78 -35 125 -114 125
-208 -1 -135 -106 -236 -225 -219 -91 14 -165 96 -173 191 -15 176 130 301
273 236z"/>
<path d="M6673 3791 c-74 -20 -145 -52 -175 -79 -26 -22 -22 -72 7 -113 54
-73 88 -83 165 -48 64 29 152 42 200 29 47 -13 80 -52 80 -95 0 -37 -4 -39
-160 -90 -124 -40 -241 -97 -290 -141 -132 -119 -96 -310 72 -384 94 -41 245
-35 355 15 45 20 53 22 64 9 23 -28 67 -44 119 -44 60 0 108 22 115 53 3 12 5
171 3 353 l-3 331 -30 49 c-37 58 -108 115 -184 144 -82 32 -241 37 -338 11z
m287 -581 c0 -85 -91 -160 -194 -160 -55 0 -92 26 -82 58 12 36 69 72 163 103
111 36 113 36 113 -1z"/>
<path d="M7577 3795 c-75 -19 -109 -38 -164 -88 -68 -63 -97 -127 -96 -212 1
-83 11 -111 57 -163 45 -49 118 -82 271 -122 167 -43 205 -74 137 -113 -55
-32 -146 -27 -271 16 -96 33 -106 35 -132 22 -36 -19 -69 -66 -76 -108 -4 -30
-1 -37 33 -65 47 -39 144 -77 249 -99 101 -20 227 -7 313 32 172 79 234 277
126 403 -41 48 -94 72 -253 112 -68 17 -141 40 -163 51 -34 18 -39 24 -36 51
8 79 121 96 261 40 102 -42 121 -41 168 6 75 76 66 129 -32 178 -125 63 -283
87 -392 59z"/>
<path d="M8440 3792 c-83 -22 -144 -58 -201 -119 -92 -98 -129 -196 -129 -338
0 -246 162 -439 399 -476 143 -22 350 21 415 86 32 32 10 141 -33 164 -15 9
-42 5 -118 -15 -180 -47 -321 -12 -382 96 l-22 40 313 2 313 3 3 99 c4 156
-36 263 -133 355 -114 108 -265 145 -425 103z m191 -213 c50 -15 105 -62 129
-110 11 -21 20 -41 20 -44 0 -3 -94 -5 -210 -5 -115 0 -210 2 -210 5 0 19 32
74 56 99 59 59 136 78 215 55z"/>
<path d="M3167 2432 c-57 -35 -39 -93 35 -112 65 -17 68 -18 68 -34 0 -22 -46
-31 -88 -18 -38 12 -52 9 -52 -13 0 -16 51 -35 95 -35 44 0 85 34 85 70 0 35
-17 49 -77 64 -37 9 -48 17 -48 32 0 25 35 30 73 10 30 -16 42 -13 42 11 0 15
-58 43 -87 43 -10 0 -30 -8 -46 -18z"/>
<path d="M4970 2431 c-120 -63 -42 -249 84 -201 20 7 33 7 39 1 20 -20 37 10
37 65 l0 54 -45 0 c-38 0 -45 -3 -45 -20 0 -13 7 -20 20 -20 26 0 26 -26 -1
-41 -27 -14 -78 -4 -95 19 -22 28 -17 70 12 99 25 25 42 27 100 8 27 -9 41 21
16 34 -40 20 -87 21 -122 2z"/>
<path d="M3440 2331 c0 -106 0 -108 23 -106 12 1 48 3 80 4 79 1 72 24 -9 31
l-59 5 -3 88 c-2 68 -6 87 -17 87 -12 0 -15 -20 -15 -109z"/>
<path d="M3815 2428 c-36 -20 -55 -52 -55 -95 0 -84 85 -135 162 -99 43 20 63
55 63 108 0 56 -47 98 -108 98 -23 0 -51 -6 -62 -12z m105 -38 c44 -44 13
-130 -48 -130 -63 0 -93 71 -51 124 25 32 70 35 99 6z"/>
<path d="M4100 2335 c0 -98 1 -105 20 -105 16 0 20 7 20 34 0 32 2 34 47 40
56 7 83 29 83 67 0 47 -34 69 -107 69 l-63 0 0 -105z m121 59 c20 -24 -1 -48
-45 -52 -35 -3 -36 -2 -36 32 0 34 2 36 34 36 18 0 39 -7 47 -16z"/>
<path d="M4382 2333 c2 -88 6 -108 18 -108 12 0 16 20 18 108 3 102 2 107 -18
107 -20 0 -21 -5 -18 -107z"/>
<path d="M4614 2346 c-49 -103 -51 -111 -29 -120 10 -3 20 5 30 24 14 27 20
30 65 30 44 0 52 -3 62 -25 7 -16 19 -25 34 -25 23 0 23 1 7 38 -8 20 -31 67
-49 105 -49 96 -63 93 -120 -27z m89 4 l15 -40 -39 0 c-21 0 -39 2 -39 5 0 11
34 75 40 75 4 0 14 -18 23 -40z"/>
<path d="M5370 2431 c-19 -5 -28 -17 -36 -51 -20 -81 -26 -140 -14 -140 12 0
16 9 25 63 3 20 11 37 18 37 7 0 13 16 14 36 3 53 15 59 52 29 28 -24 33 -24
30 3 0 4 -7 6 -16 4 -10 -2 -14 2 -10 10 5 16 -23 20 -63 9z"/>
<path d="M5650 2329 c0 -100 2 -110 18 -107 12 2 18 15 20 46 l3 42 55 0 54 0
0 -39 c0 -30 4 -40 20 -44 19 -5 20 0 20 105 0 99 -2 109 -17 106 -13 -2 -19
-15 -21 -46 l-3 -42 -55 0 -54 0 0 45 c0 38 -3 45 -20 45 -19 0 -20 -7 -20
-111z"/>
<path d="M5960 2335 l0 -105 86 0 c64 0 85 3 82 13 -3 7 -28 13 -66 15 -61 3
-62 3 -62 32 0 30 1 30 55 30 42 0 55 3 55 15 0 12 -13 15 -55 15 -54 0 -55 0
-55 30 l0 30 60 0 c47 0 60 3 60 15 0 12 -16 15 -80 15 l-80 0 0 -105z"/>
<path d="M6240 2330 l0 -111 88 3 c69 2 87 6 87 18 0 12 -15 16 -67 18 -68 3
-68 3 -68 32 0 30 1 30 55 30 42 0 55 3 55 15 0 12 -13 15 -55 15 -52 0 -55 1
-55 25 0 24 3 25 60 25 53 0 60 2 60 20 0 18 -7 20 -80 20 l-80 0 0 -110z"/>
<path d="M6721 2426 c-32 -18 -50 -53 -51 -99 0 -54 52 -107 104 -107 73 0
126 51 126 121 0 22 -10 41 -34 65 -28 28 -41 34 -77 34 -24 -1 -55 -7 -68
-14z m93 -27 c13 -7 30 -24 36 -38 31 -76 -69 -138 -119 -75 -28 35 -26 69 4
99 27 28 42 30 79 14z"/>
<path d="M7020 2336 c0 -99 1 -106 20 -106 16 0 20 7 20 35 0 47 29 47 61 0
16 -23 32 -35 47 -35 l23 0 -22 31 -22 32 23 17 c18 13 24 28 24 54 0 54 -22
70 -104 74 l-70 4 0 -106z m121 55 c34 -28 16 -55 -40 -59 l-41 -3 0 40 c0 38
2 41 29 41 16 0 39 -9 52 -19z"/>
<path d="M7322 2333 c3 -93 5 -108 21 -111 15 -3 17 6 17 75 l1 78 32 -57 c18
-32 38 -58 44 -58 7 0 26 26 42 58 l30 57 1 -72 c0 -66 2 -73 20 -73 19 0 20
7 20 106 l0 105 -27 -3 c-20 -2 -33 -16 -58 -60 l-31 -58 -29 60 c-25 53 -32
60 -57 60 l-29 0 3 -107z"/>
<path d="M5467 2354 c-3 -3 -3 -13 0 -22 5 -11 2 -13 -8 -8 -8 4 -6 1 4 -7 12
-10 14 -17 8 -22 -18 -10 -12 -44 8 -55 52 -27 69 5 25 51 -14 14 -26 36 -27
48 -1 23 -1 23 -10 15z"/>
<path d="M5355 2285 c4 -38 15 -43 15 -7 0 18 -4 32 -9 32 -5 0 -8 -11 -6 -25z"/>
<path d="M6514 2255 c-8 -19 12 -36 33 -28 19 7 12 37 -10 41 -9 2 -20 -4 -23
-13z"/>
</g>
</svg>
