<?xml version="1.0" standalone="no"?>
<!DOCTYPE svg PUBLIC "-//W3C//DTD SVG 20010904//EN"
 "http://www.w3.org/TR/2001/REC-SVG-20010904/DTD/svg10.dtd">
<svg version="1.0" xmlns="http://www.w3.org/2000/svg"
 width="1024.000000pt" height="1024.000000pt" viewBox="0 0 1024.000000 1024.000000"
 preserveAspectRatio="xMidYMid meet">

<g transform="translate(0.000000,1024.000000) scale(0.100000,-0.100000)"
fill="#000000" stroke="none">
<path d="M4411 10198 c-10 -24 -24 -61 -30 -83 -6 -22 -21 -58 -34 -79 -23
-42 -61 -61 -277 -137 -61 -22 -74 -29 -45 -25 36 5 29 0 -60 -49 -55 -30
-128 -62 -162 -71 -79 -21 -189 -16 -255 14 -27 11 -48 19 -48 16 0 -13 117
-56 167 -61 l58 -6 -68 -23 c-85 -29 -162 -73 -218 -124 l-44 -41 52 38 c122
89 154 103 310 134 81 16 175 38 208 49 87 28 185 49 185 39 0 -5 -4 -9 -10
-9 -5 0 -33 -25 -62 -55 -46 -47 -62 -57 -118 -71 -36 -9 -123 -20 -195 -24
-99 -5 -114 -8 -65 -10 89 -4 152 0 235 15 38 8 71 12 73 10 2 -2 -8 -19 -22
-38 -14 -18 -32 -53 -41 -76 -17 -50 -20 -167 -4 -208 8 -23 6 -37 -12 -78
-30 -66 -54 -92 -111 -121 -27 -13 -48 -27 -48 -29 0 -3 18 4 41 15 57 30 61
18 5 -15 -56 -33 -61 -43 -8 -16 34 17 73 51 59 51 -3 0 9 15 27 33 17 18 36
41 43 52 6 11 12 15 12 9 1 -7 -15 -36 -36 -65 -20 -29 -51 -89 -69 -134 -18
-44 -44 -105 -58 -135 -14 -30 -26 -62 -25 -70 0 -8 6 1 14 20 18 48 60 121
67 115 3 -3 25 6 49 20 27 16 34 24 19 19 -14 -3 -33 -13 -43 -22 -9 -8 -19
-13 -22 -10 -5 5 48 123 90 198 16 27 23 54 20 67 -3 12 -1 25 5 28 5 3 10 -1
10 -10 0 -8 4 -23 9 -33 17 -34 31 -89 31 -124 0 -27 -7 -42 -26 -57 l-25 -20
38 6 c37 6 174 69 257 119 39 24 40 24 14 2 -15 -13 -81 -50 -145 -83 -109
-55 -223 -122 -223 -132 0 -5 34 13 83 44 22 14 41 22 44 20 2 -3 12 -36 22
-74 16 -62 60 -161 61 -138 0 6 -9 33 -19 60 -35 93 -38 195 -3 123 10 -23 11
-22 11 5 1 16 8 30 18 34 9 4 28 18 41 32 l23 26 -21 -45 -21 -45 28 31 c32
35 54 46 72 34 9 -5 -6 -28 -49 -76 -102 -114 -89 -116 21 -4 57 58 99 98 94
90 -5 -8 -26 -41 -47 -72 -21 -31 -38 -60 -38 -64 0 -3 -18 -33 -40 -65 -22
-32 -40 -61 -40 -64 0 -15 -93 -87 -173 -133 -131 -76 -132 -85 -2 -17 61 32
134 79 163 104 87 75 128 107 114 89 -8 -9 -11 -21 -8 -26 3 -5 -19 -32 -48
-60 -30 -28 -51 -54 -47 -58 3 -4 1 -4 -5 -1 -6 4 -20 -3 -30 -14 -34 -38
-158 -127 -237 -169 -42 -23 -77 -43 -77 -45 0 -2 28 9 63 24 77 35 109 43
101 28 -3 -7 1 -5 8 4 21 25 139 99 149 93 5 -3 9 -1 9 5 0 6 13 17 29 25 15
8 57 38 92 67 63 50 62 49 -19 -30 -45 -44 -114 -99 -152 -121 -38 -22 -82
-57 -99 -77 -42 -50 -91 -172 -96 -236 -3 -29 -2 -43 1 -32 22 90 31 117 56
170 26 58 57 97 108 140 14 11 3 -4 -23 -34 -85 -96 -117 -182 -122 -326 l-4
-100 9 83 c15 146 45 224 115 307 37 43 165 145 165 131 0 -3 -12 -22 -26 -43
-60 -88 -124 -249 -108 -274 3 -5 12 -35 20 -66 8 -32 22 -65 30 -74 13 -15
12 -17 -12 -23 -42 -11 -110 -62 -134 -101 -12 -20 -27 -41 -34 -48 -51 -53
-130 -191 -356 -620 -37 -70 -73 -133 -79 -141 -33 -40 -261 -119 -291 -101
-4 3 -7 373 -7 823 l2 817 281 2 281 2 12 -40 c7 -23 14 -39 17 -37 2 3 -1 19
-7 37 -6 18 -8 35 -5 39 4 3 68 5 143 3 105 -2 138 0 144 11 13 20 11 32 -4
20 -9 -8 -58 -9 -151 -5 l-137 6 6 24 c8 32 -4 29 -16 -4 l-9 -28 -293 0 -292
0 0 -839 0 -840 -30 -7 c-64 -17 -259 -35 -306 -29 -31 4 -53 2 -58 -4 -13
-16 -68 -147 -77 -180 -4 -16 -39 -97 -79 -180 -40 -83 -109 -239 -155 -346
-121 -286 -119 -283 -142 -308 -12 -12 -53 -31 -92 -43 -104 -31 -261 -115
-536 -291 -212 -134 -440 -275 -513 -315 -12 -7 -38 -13 -57 -13 -19 0 -62 -6
-96 -13 -51 -11 -66 -20 -99 -55 l-38 -43 -21 38 c-31 55 -54 54 -166 -13
-123 -73 -214 -118 -277 -139 -64 -21 -71 -41 -31 -96 29 -40 29 -43 12 -53
-36 -21 -204 -94 -298 -131 -53 -20 -96 -41 -96 -45 0 -9 154 48 310 116 l109
47 21 -24 c11 -13 31 -45 44 -70 l24 -45 -31 -25 c-36 -28 -138 -72 -207 -89
-49 -13 -148 -50 -222 -84 l-47 -21 -1 -274 0 -275 31 42 c17 23 67 69 111
103 45 33 135 106 200 162 85 74 146 116 218 153 l99 52 33 -52 c46 -73 111
-156 122 -156 15 0 420 203 428 214 4 6 0 26 -9 45 -8 20 -17 41 -20 48 -6 16
32 32 182 77 147 44 175 50 175 41 0 -4 -20 -31 -44 -59 -24 -28 -72 -87 -106
-131 -152 -192 -483 -550 -762 -825 -98 -96 -178 -180 -178 -186 0 -17 57 -66
230 -194 91 -67 176 -133 191 -146 32 -31 37 -30 74 6 l31 30 59 -36 c140 -85
392 -199 920 -419 253 -105 316 -129 555 -210 302 -103 329 -112 474 -154 77
-23 141 -43 144 -46 8 -8 -27 -238 -53 -350 -35 -152 -36 -162 -19 -180 8 -8
26 -18 40 -21 23 -6 24 -10 24 -79 0 -40 -7 -137 -15 -216 -8 -78 -22 -224
-30 -323 -8 -100 -20 -235 -25 -301 -14 -174 -20 -206 -39 -212 -9 -4 -260
-169 -558 -367 l-542 -361 327 -3 c180 -2 346 0 369 3 41 6 67 24 135 92 16
16 28 31 28 35 0 4 9 10 20 13 11 4 18 10 15 14 -2 5 4 16 15 26 11 10 17 22
14 26 -3 5 9 9 25 9 24 0 31 4 31 20 0 13 7 20 20 20 11 0 20 -7 20 -15 0 -8
3 -14 8 -14 20 3 23 -2 11 -18 -8 -9 4 -5 28 10 l42 26 -6 -124 c-4 -80 -2
-125 4 -125 6 0 13 52 16 123 11 200 18 248 36 245 8 -2 18 -14 22 -28 7 -25
7 -25 8 -2 1 17 6 22 19 19 9 -3 51 -13 92 -22 41 -10 92 -28 112 -41 42 -27
59 -29 75 -13 6 6 17 8 23 4 9 -6 9 -10 -1 -16 -11 -7 -11 -9 1 -9 9 0 21 5
27 11 9 9 25 7 65 -6 29 -9 78 -20 109 -22 l56 -6 12 34 c15 45 29 260 41 644
11 384 26 608 60 945 6 58 10 197 8 310 l-3 205 -35 3 c-19 1 -109 16 -200 32
-91 16 -194 32 -229 36 l-64 7 6 111 c4 61 16 171 27 245 11 73 27 192 35 263
9 72 20 151 26 177 13 57 39 221 38 241 -2 34 -60 -287 -79 -435 -11 -88 -29
-209 -40 -270 -10 -60 -22 -156 -26 -213 -5 -85 -9 -102 -23 -102 -46 1 -47 8
-17 207 16 103 39 238 51 298 13 61 35 190 49 287 37 249 96 505 163 700 58
173 78 214 43 93 -33 -115 -14 -84 28 47 38 114 119 301 193 443 41 77 191
295 204 295 6 1 30 27 55 60 25 32 50 61 57 64 11 5 184 -22 192 -30 3 -3 -3
-19 -13 -37 l-19 -32 30 34 30 34 73 -12 c40 -6 76 -14 80 -16 11 -7 -9 -103
-35 -170 -58 -146 -77 -206 -101 -309 -14 -61 -45 -187 -69 -281 -54 -214 -65
-260 -65 -285 0 -11 -4 -20 -8 -20 -12 0 -87 -197 -127 -333 -22 -78 -22 -319
0 -369 15 -33 15 -32 9 30 -7 74 21 234 47 269 l17 23 6 -35 c7 -36 -8 -216
-24 -300 -15 -75 -27 -187 -20 -178 4 5 28 139 54 298 26 160 56 346 67 415
12 69 25 157 30 195 67 479 93 587 230 959 25 68 34 85 40 70 4 -10 8 -13 8
-6 1 6 13 12 27 12 32 0 30 -30 -4 -45 -15 -7 -22 -18 -22 -37 0 -27 -47 -188
-55 -188 -3 0 -2 15 0 33 4 28 4 29 -4 7 -5 -14 -9 -52 -10 -85 -1 -34 -6 -66
-12 -72 -6 -6 -15 -89 -20 -199 -5 -104 -17 -250 -27 -324 -15 -123 -19 -135
-37 -135 -18 0 -21 9 -28 110 -4 61 -5 139 -3 175 l4 65 -13 -70 c-23 -117
-74 -452 -90 -595 -9 -74 -27 -211 -40 -305 -13 -93 -34 -253 -45 -355 -11
-102 -27 -217 -35 -256 -8 -38 -19 -115 -25 -170 -6 -54 -15 -130 -21 -169
-28 -194 -39 -295 -39 -357 0 -38 -7 -99 -15 -136 -18 -84 -34 -330 -40 -617
-5 -237 -11 -286 -57 -469 -26 -104 -31 -147 -39 -330 -4 -116 -13 -240 -19
-276 -5 -36 -10 -71 -10 -77 0 -10 78 -13 358 -13 l358 0 51 152 c28 84 64
207 78 273 14 66 40 174 56 240 17 66 43 190 59 275 16 85 40 202 53 260 14
58 30 135 36 171 6 37 24 98 40 136 16 39 41 112 56 164 33 113 96 291 101
286 2 -2 -7 -41 -20 -88 -14 -46 -37 -138 -51 -203 -15 -65 -40 -162 -56 -215
-32 -105 -69 -254 -159 -641 -91 -391 -125 -537 -153 -640 -33 -126 -40 -170
-27 -170 5 0 10 7 10 16 0 9 38 168 84 353 47 185 105 426 130 536 25 110 50
216 56 236 5 19 18 78 29 130 11 52 31 130 45 174 14 44 43 154 66 245 22 91
51 199 64 240 14 41 31 100 40 130 15 55 40 100 55 100 11 0 80 -101 123 -180
19 -36 48 -87 63 -115 51 -91 191 -319 256 -415 106 -158 201 -308 288 -453
71 -120 292 -465 353 -550 118 -167 230 -348 245 -393 12 -39 22 -54 35 -54
10 0 18 2 18 4 0 38 -186 343 -290 476 -29 36 -90 137 -90 147 0 3 7 0 16 -8
15 -12 2 11 -79 145 -42 68 -52 80 -39 46 6 -14 31 -56 56 -95 41 -62 62 -106
37 -79 -16 17 -168 249 -238 364 -69 113 -142 228 -321 506 -130 203 -342 574
-328 574 3 0 27 -39 54 -88 125 -219 225 -385 354 -586 35 -54 76 -118 91
-143 16 -25 30 -43 33 -41 2 3 -7 31 -22 64 -42 95 -20 171 45 159 15 -2 83
-23 151 -46 130 -42 177 -69 295 -162 45 -37 85 -60 116 -67 47 -12 50 -14
254 -245 15 -16 23 -23 19 -15 -13 26 -57 84 -106 138 -26 29 -57 67 -69 85
-19 27 -15 25 27 -14 38 -36 62 -49 106 -59 32 -7 55 -16 53 -21 -3 -4 11 -2
29 3 29 9 46 7 93 -10 84 -29 228 -69 303 -82 137 -25 309 -73 417 -116 170
-67 325 -141 336 -159 5 -9 7 -34 5 -56 -2 -21 0 -39 4 -39 5 0 8 -7 8 -16 0
-19 -160 -96 -246 -118 -34 -9 -112 -25 -173 -35 -61 -10 -122 -26 -135 -34
-13 -9 -34 -13 -47 -11 -15 4 -20 3 -12 -3 16 -11 -12 -37 -50 -47 -15 -3 -27
-11 -27 -16 0 -5 -17 -21 -37 -34 -21 -13 -52 -37 -70 -54 -25 -23 -43 -30
-86 -34 -53 -4 -94 -27 -79 -43 4 -5 2 -5 -4 -2 -7 4 -15 23 -19 43 -3 20 -9
34 -12 31 -2 -3 0 -29 5 -59 20 -101 22 -122 15 -114 -4 3 -15 44 -24 89 -25
123 -57 222 -80 249 l-20 23 15 -25 c17 -28 60 -188 72 -264 5 -39 4 -47 -6
-41 -10 6 -12 4 -7 -9 4 -10 7 -26 7 -37 0 -19 9 -19 403 -16 221 3 409 5 419
6 16 2 53 68 178 316 30 60 61 111 69 113 20 7 9 -182 -17 -278 -12 -41 -22
-93 -24 -115 l-3 -40 81 -3 81 -3 7 83 c4 46 14 134 22 196 16 132 18 229 3
292 -14 63 -113 278 -176 383 -68 112 -99 175 -130 257 -35 92 -285 524 -335
577 -12 13 -19 25 -16 28 9 9 125 -151 164 -224 44 -84 68 -127 83 -145 6 -7
57 -105 112 -216 55 -111 123 -236 151 -278 28 -41 73 -122 100 -180 67 -144
83 -262 74 -560 -4 -137 -2 -212 4 -212 17 0 13 595 -4 650 -23 75 -140 313
-173 350 -16 19 -76 127 -133 240 -56 113 -110 216 -120 230 -10 14 -37 63
-60 110 -58 116 -158 291 -180 315 -23 25 -52 84 -48 95 2 5 27 -32 57 -83 29
-51 66 -111 82 -134 16 -23 29 -45 29 -50 0 -4 9 -14 20 -21 31 -19 94 -121
167 -272 36 -74 84 -166 106 -204 42 -72 87 -179 87 -205 0 -18 39 -72 40 -55
0 29 -70 216 -93 245 -14 19 -69 119 -121 221 -98 195 -106 209 -192 323 -29
39 -69 102 -90 140 -20 39 -45 81 -55 94 -11 13 -19 30 -19 39 0 20 70 130
132 205 55 68 100 154 119 228 l13 49 45 2 c25 1 215 3 421 3 206 0 391 4 410
8 l35 8 2 -135 1 -136 -146 0 c-99 0 -142 -3 -132 -10 8 -5 75 -10 148 -10
l132 0 -1 -696 c0 -383 2 -698 5 -702 3 -3 7 21 7 54 1 32 2 64 4 69 1 6 3
293 3 639 l2 629 131 -6 c73 -4 133 -8 135 -10 6 -6 5 -1468 -1 -1478 -4 -5 1
-9 9 -9 14 0 16 77 16 746 l0 747 108 -6 c178 -9 473 -26 720 -43 129 -9 236
-14 238 -11 8 7 -182 24 -496 43 -184 11 -389 24 -477 30 l-93 7 0 152 0 151
238 14 c130 7 428 16 662 20 l425 6 -360 2 c-349 2 -815 -11 -916 -24 l-49 -7
2 1049 3 1048 140 53 c77 30 221 81 320 115 98 34 174 63 167 66 -17 5 -145
-37 -524 -176 l-108 -40 0 1193 c0 1122 1 1194 18 1212 19 22 196 175 317 274
167 138 208 168 218 162 5 -3 7 -1 4 4 -7 11 59 71 237 218 60 50 161 134 225
188 64 54 158 129 209 168 50 38 92 77 92 85 0 16 -76 -41 -235 -176 -49 -42
-144 -120 -210 -173 -66 -53 -155 -127 -199 -164 l-79 -67 6 74 c8 87 17 382
11 330 -19 -163 -24 -228 -25 -313 l-2 -98 -82 -70 c-84 -70 -102 -81 -92 -54
4 8 1 17 -5 21 -7 5 -9 -2 -6 -19 4 -23 -5 -35 -76 -94 -45 -37 -121 -104
-171 -148 -49 -44 -103 -90 -120 -102 l-30 -21 -2 325 c-2 211 1 322 7 318 6
-3 10 1 10 9 0 9 -4 16 -10 16 -7 0 -10 169 -10 488 0 487 0 489 21 508 12 10
60 64 107 119 47 55 90 105 96 110 6 6 27 30 48 55 59 72 95 109 102 103 3 -4
6 0 6 8 0 18 63 89 78 89 7 0 12 8 12 18 0 10 11 29 24 41 23 21 25 22 29 4 2
-10 3 -6 1 8 -2 19 5 33 24 50 15 13 21 17 15 9 -7 -8 -13 -19 -13 -24 1 -14
24 25 25 41 0 11 62 85 265 318 58 66 127 147 155 180 42 51 211 246 279 323
l19 22 -44 0 c-45 0 -46 -1 -140 -107 -53 -60 -149 -173 -214 -253 -124 -152
-184 -221 -325 -380 -47 -53 -168 -196 -269 -318 -101 -123 -210 -252 -242
-288 l-59 -64 0 705 c0 442 -4 705 -10 705 -5 0 -11 -33 -13 -72 l-3 -73 -2
73 -2 72 -275 0 -275 0 0 -171 c0 -111 3 -168 10 -164 6 3 10 2 10 -4 0 -5 -6
-12 -12 -14 -10 -4 -10 -8 1 -15 11 -8 11 -10 0 -15 -8 -3 1 -3 19 0 20 3 32
1 32 -6 0 -6 9 -11 20 -11 13 0 20 -7 20 -20 0 -13 7 -20 20 -20 16 0 20 7 20
33 0 24 3 28 10 17 5 -8 10 -27 10 -42 0 -16 5 -28 10 -28 6 0 10 9 10 20 0
28 37 26 46 -2 4 -12 10 -45 14 -73 5 -35 8 0 9 114 0 90 4 162 7 158 4 -3 8
-348 10 -766 l5 -759 -60 -71 c-32 -39 -90 -105 -127 -147 -38 -42 -75 -86
-83 -98 -8 -11 -74 -86 -146 -166 -72 -80 -143 -158 -157 -175 -72 -84 -147
-170 -288 -327 -85 -95 -178 -202 -205 -237 -94 -122 -125 -143 -125 -88 0 13
-12 92 -28 177 -25 146 -27 167 -22 360 3 113 7 385 8 605 2 220 4 409 5 420
2 17 -5 21 -48 25 l-49 5 -1 737 c-1 406 -4 741 -8 745 -4 3 -7 -329 -7 -739
l0 -745 -79 -6 c-117 -9 -1034 4 -1048 15 -6 5 -17 31 -23 59 -14 56 -30 74
-30 33 0 -30 35 -95 89 -165 20 -26 42 -55 49 -65 10 -16 11 -15 1 6 -7 14
-20 37 -30 52 -11 14 -19 29 -19 32 0 3 244 5 543 4 l542 -3 5 -467 c3 -256 9
-470 13 -474 4 -5 5 204 1 464 l-7 472 39 0 39 0 -3 -582 c-1 -320 -6 -577
-11 -572 -4 5 -14 36 -20 69 -16 73 -87 215 -148 293 -26 34 -67 71 -103 93
-91 56 -312 128 -499 163 -100 19 -179 59 -160 82 7 8 9 28 6 48 -5 33 -134
257 -164 286 -9 8 -7 2 4 -15 56 -82 132 -273 98 -245 -8 6 -26 33 -41 58 -33
56 -44 41 -14 -18 12 -23 19 -44 17 -47 -7 -7 -51 55 -80 112 -14 28 -54 98
-90 157 -61 101 -65 111 -72 188 -7 76 -5 87 31 198 29 87 40 110 42 89 2 -16
-6 -59 -17 -97 -24 -79 -26 -99 -6 -52 8 18 21 67 30 110 9 42 22 95 30 117 9
22 24 90 34 150 l18 110 8 -60 c23 -177 1 -302 -75 -425 -20 -31 -20 -32 -2
-10 90 109 122 229 104 385 -24 205 -32 242 -62 309 -36 82 -34 109 4 48 62
-99 93 -236 83 -375 -3 -51 -2 -76 4 -66 17 31 39 144 37 194 -1 47 -2 47 -5
10 -7 -63 -23 -67 -23 -5 0 74 -45 200 -102 286 -74 113 -159 282 -198 394
-21 58 -41 114 -45 125 -18 50 34 -47 57 -106 42 -104 108 -237 163 -329 29
-47 64 -106 79 -132 15 -27 29 -48 32 -48 6 0 -5 20 -76 145 -84 147 -134 249
-169 347 -16 48 -37 101 -46 118 l-15 29 -588 -2 -589 -2 -56 -38 c-65 -42
-74 -63 -24 -53 78 16 117 19 117 7 0 -6 -10 -11 -22 -11 -44 0 -227 -68 -423
-155 -33 -15 -96 -35 -140 -45 -44 -9 -89 -20 -100 -24 -18 -7 -18 -7 -2 4 10
6 48 22 85 34 69 24 148 66 123 66 -11 0 -11 3 0 16 7 9 13 23 14 32 3 31 26
92 36 92 5 0 9 9 9 19 0 11 5 23 10 26 13 8 13 35 0 35 -5 0 -18 -19 -29 -42z
m1554 -150 c26 -18 56 -49 68 -68 l20 -35 -33 38 c-18 22 -54 52 -79 68 -25
16 -41 29 -35 29 7 0 33 -15 59 -32z m-1320 -4 c-11 -9 -42 -25 -68 -36 -73
-32 -51 -30 42 3 46 16 85 28 87 26 2 -2 -51 -27 -118 -57 -68 -29 -156 -70
-197 -91 -74 -39 -108 -49 -95 -28 4 7 0 9 -12 5 -11 -3 -53 -13 -94 -22 -41
-9 -102 -22 -135 -30 -33 -7 -64 -13 -70 -13 -25 0 92 38 200 64 66 16 112 31
102 33 -9 2 -45 -3 -80 -11 -123 -30 -136 -30 -65 2 37 17 85 33 105 36 42 7
343 110 383 130 31 17 42 8 15 -11z m4254 -318 c1 -121 -1 -217 -3 -215 -2 2
-6 123 -9 269 -3 151 -2 243 3 215 5 -27 9 -149 9 -269z m-245 69 c0 -27 -1
-54 -3 -60 -2 -5 -3 -38 -2 -72 1 -49 4 -63 16 -63 8 0 15 -9 15 -20 0 -11 -7
-20 -15 -20 -8 0 -15 -9 -15 -20 0 -16 7 -20 35 -20 28 0 35 -4 35 -20 0 -13
-7 -20 -20 -20 -13 0 -20 -7 -20 -20 0 -11 -7 -20 -15 -20 -11 0 -15 -11 -15
-40 0 -40 0 -40 40 -40 l40 0 -7 -60 -6 -60 62 0 61 0 0 33 c0 54 11 79 31 74
16 -4 19 3 22 77 1 44 4 5 5 -87 1 -110 -1 -166 -8 -162 -5 3 -10 1 -10 -4 0
-6 5 -11 10 -11 6 0 10 -64 10 -171 l0 -171 -62 -76 c-35 -42 -83 -99 -108
-127 -25 -28 -57 -66 -72 -85 l-28 -35 2 755 c0 550 3 733 11 675 5 -44 10
-102 11 -130z m-3221 162 c18 -12 32 -35 45 -79 46 -149 36 -204 -42 -239 -24
-10 -58 -33 -76 -51 -31 -32 -32 -34 -26 -101 3 -37 9 -121 13 -186 6 -112 5
-119 -16 -140 -11 -11 -21 -28 -21 -37 0 -13 -4 -12 -18 6 -13 17 -24 20 -45
15 -15 -4 -27 -11 -27 -15 0 -13 24 -28 50 -32 21 -2 26 -9 30 -46 l5 -44 28
22 c22 18 30 20 42 10 8 -7 15 -18 15 -24 0 -17 -59 -36 -111 -36 -31 0 -56
-8 -83 -26 -21 -15 -46 -24 -57 -21 -22 6 -36 -10 -22 -24 6 -6 52 -12 104
-15 175 -9 191 -12 171 -36 -17 -21 -100 -41 -147 -35 -25 2 -45 1 -45 -2 0
-21 46 -51 92 -60 77 -17 95 -32 90 -73 -3 -30 -10 -38 -48 -56 -53 -26 -75
-27 -117 -6 -76 39 -235 186 -290 269 -31 47 -62 133 -83 229 -17 79 -13 99 6
31 25 -89 21 -36 -5 68 l-27 106 28 46 c15 26 33 49 39 52 7 2 30 -4 52 -15
56 -29 133 -37 174 -18 49 21 77 49 85 82 3 16 13 39 20 51 31 49 -15 77 -173
104 -65 12 -122 25 -126 29 -8 7 88 211 125 262 23 33 68 48 168 57 101 8 190
0 223 -22z m3144 -104 c-2 -16 -4 -5 -4 22 0 28 2 40 4 28 2 -13 2 -35 0 -50z
m-4477 37 c-8 -5 -19 -10 -25 -10 -5 0 -3 5 5 10 8 5 20 10 25 10 6 0 3 -5 -5
-10z m518 5 c-12 -12 -220 -78 -302 -96 -48 -10 -112 -32 -142 -48 -30 -16
-54 -25 -54 -20 0 17 123 70 218 95 54 13 135 35 182 48 90 26 107 29 98 21z
m1217 -230 c14 -44 31 -114 37 -155 10 -67 9 -86 -10 -165 -12 -50 -28 -138
-37 -197 -26 -186 -61 -253 -208 -395 -103 -100 -174 -149 -96 -67 73 77 134
175 153 245 10 35 29 96 42 134 68 189 104 331 104 405 0 39 -23 112 -43 138
-6 7 -12 23 -14 35 -1 12 -5 41 -9 65 -3 23 -3 54 1 69 l6 27 24 -30 c13 -16
35 -65 50 -109z m-1612 70 c-27 -23 -57 -68 -94 -140 -30 -58 -71 -128 -91
-156 -21 -27 -38 -52 -38 -55 0 -3 21 13 46 35 26 22 110 73 188 111 77 39
132 64 121 55 -11 -9 -78 -45 -148 -81 -85 -43 -145 -82 -177 -112 l-48 -47 4
30 c11 88 27 153 50 202 15 30 28 52 31 50 2 -3 -2 -18 -10 -34 -19 -36 -48
-145 -37 -138 5 3 14 22 20 43 24 78 43 121 50 117 8 -5 54 54 47 61 -3 3 -14
-7 -26 -22 -12 -15 -24 -25 -26 -22 -9 9 37 59 50 54 7 -2 23 7 36 21 22 23
77 63 88 63 3 0 -14 -16 -36 -35z m109 -17 c-7 -7 -12 -20 -12 -30 0 -12 -5
-15 -16 -11 -13 5 -12 9 7 29 12 13 25 24 28 24 3 0 0 -5 -7 -12z m1573 -11
c19 -4 19 -5 -1 -6 -12 0 -28 7 -35 17 -12 15 -12 16 1 6 8 -7 24 -14 35 -17z
m-1641 -53 c3 -8 2 -13 -3 -9 -5 3 -18 -6 -29 -20 -11 -14 -23 -25 -26 -25 -4
0 6 16 21 35 15 19 29 35 29 35 1 0 5 -7 8 -16z m-60 -6 c-27 -44 -67 -98 -75
-104 -12 -7 35 72 59 99 18 20 27 23 16 5z m-235 -126 c-6 -17 -9 -69 -7 -116
2 -48 -1 -81 -6 -76 -10 10 -4 200 8 218 14 22 17 7 5 -26z m1033 -69 c22 -28
88 -10 101 27 4 10 6 7 6 -7 1 -29 -26 -43 -82 -43 -53 0 -69 15 -54 50 9 23
10 23 15 5 2 -11 9 -26 14 -32z m3758 -17 c0 -2 -3 -11 -6 -20 -9 -23 -34 -20
-34 4 0 13 7 20 20 20 11 0 20 -2 20 -4z m34 -42 c9 -25 7 -34 -8 -34 -19 0
-28 14 -20 34 8 20 20 20 28 0z m86 1 c0 -16 -17 -19 -47 -8 -16 6 -15 8 7 14
38 11 40 10 40 -6z m-133 -67 c-2 -13 -4 -5 -4 17 -1 22 1 32 4 23 2 -10 2
-28 0 -40z m-3137 -4 c0 -11 -8 -14 -27 -12 -39 4 -42 28 -4 28 21 0 31 -5 31
-16z m310 -153 c-5 -11 -15 -23 -21 -27 -6 -3 -3 5 6 20 20 30 30 35 15 7z
m-1890 -108 c-11 -17 -11 -17 -6 0 3 10 7 31 7 45 l2 27 4 -27 c2 -15 -1 -35
-7 -45z m110 -28 c0 -2 -10 -9 -22 -15 -22 -11 -22 -10 -4 4 21 17 26 19 26
11z m89 -182 c-26 -32 -79 -84 -79 -76 0 4 19 27 42 50 43 44 61 57 37 26z
m1887 -243 c28 -47 58 -98 69 -115 27 -42 -81 70 -113 117 -19 30 -25 53 -28
115 l-3 78 13 -55 c7 -30 35 -93 62 -140z m2776 78 c-7 -7 -12 -8 -12 -2 0 14
12 26 19 19 2 -3 -1 -11 -7 -17z m-3724 -53 c130 -87 138 -94 163 -138 39 -71
51 -149 44 -293 -6 -128 -6 -131 15 -137 31 -8 75 8 117 42 61 50 83 39 83
-39 0 -43 11 -51 53 -39 38 11 34 3 -11 -20 -21 -11 -45 -27 -53 -37 -10 -13
-5 -12 16 4 31 23 137 49 215 53 47 3 90 -13 90 -34 0 -8 -4 -7 -11 3 -9 12
-10 10 -6 -9 7 -30 -11 -71 -29 -64 -8 3 -14 1 -14 -4 0 -6 -18 -16 -40 -23
-28 -9 -37 -16 -28 -22 10 -6 10 -8 1 -8 -7 0 -13 -7 -13 -15 0 -18 12 -19 28
-3 9 9 12 9 12 0 0 -7 9 -12 21 -12 16 0 20 -4 14 -17 -37 -98 -85 -367 -85
-483 l0 -76 -82 -21 c-128 -33 -166 -36 -320 -23 -224 19 -339 57 -455 149
-92 72 -205 267 -268 461 -15 47 -36 107 -47 133 -11 27 -17 51 -15 53 2 3 26
0 53 -5 27 -5 67 -12 89 -16 l40 -6 -34 21 -33 21 23 26 c13 14 53 45 89 68
36 23 87 60 113 83 27 23 57 42 68 42 11 0 17 5 14 10 -3 6 1 10 9 10 12 0 16
10 16 38 1 20 5 57 11 82 5 25 13 95 18 155 8 91 13 128 20 153 2 6 19 -3 109
-63z m3642 -35 c-29 -33 -55 -60 -58 -60 -5 0 14 24 72 88 51 55 41 35 -14
-28z m-110 -129 c-5 -11 -15 -23 -22 -27 -7 -5 -8 -2 -3 7 21 37 44 55 25 20z
m-63 -163 c-2 -18 -4 -6 -4 27 0 33 2 48 4 33 2 -15 2 -42 0 -60z m-4474 -86
c2 -57 0 -97 -4 -90 -5 7 -8 58 -8 113 1 124 6 113 12 -23z m4437 -26 c0 -109
-1 -116 -20 -116 -17 0 -20 7 -20 40 0 33 -3 40 -20 40 -16 0 -20 -7 -20 -35
0 -19 -4 -35 -9 -35 -5 0 -23 -3 -40 -6 -27 -6 -31 -4 -31 16 0 16 -3 20 -12
13 -7 -5 -26 -15 -42 -22 -29 -12 -29 -12 -13 11 8 13 21 22 27 20 6 -1 9 1 6
6 -7 12 123 164 135 156 5 -3 10 -15 10 -27 1 -18 2 -18 6 -4 3 10 0 24 -6 31
-7 9 -6 19 5 34 13 19 17 20 30 8 10 -11 14 -43 14 -130z m-2531 50 l65 -12
-35 -21 c-19 -12 -46 -31 -60 -42 l-26 -21 -7 39 c-3 22 -9 46 -12 55 -7 19
-9 19 75 2z m2568 -68 c-2 -13 -4 -3 -4 22 0 25 2 35 4 23 2 -13 2 -33 0 -45z
m-2209 33 c20 -11 55 -38 77 -61 l40 -43 -50 37 c-27 21 -65 46 -82 58 -53 33
-43 39 15 9z m-271 -9 c8 -5 -2 -8 -24 -9 -25 -1 -32 2 -22 8 17 11 30 11 46
1z m68 -20 c-3 -3 -11 0 -18 7 -9 10 -8 11 6 5 10 -3 15 -9 12 -12z m422 -38
c144 -34 357 -108 413 -144 102 -65 211 -225 196 -286 -10 -39 -21 -28 -44 44
-12 37 -35 89 -52 115 -60 96 -271 200 -522 258 -51 12 -97 25 -102 30 -14 13
-11 12 111 -17z m-589 -6 c-3 -7 -13 -15 -24 -17 -16 -3 -17 -1 -5 13 16 19
34 21 29 4z m-66 -45 c-11 -21 -36 -81 -56 -133 -21 -51 -47 -112 -58 -134
-11 -22 -34 -92 -50 -156 -25 -99 -30 -140 -35 -295 -3 -106 0 -225 6 -290 7
-60 16 -197 21 -303 5 -106 11 -196 14 -200 5 -9 13 -278 21 -752 11 -561 12
-796 5 -755 -5 27 -8 -7 -10 -100 l-3 -140 -8 95 c-6 62 -5 130 2 195 9 75 9
246 0 685 -12 589 -20 784 -46 1115 -39 480 -20 666 95 965 57 147 100 240
112 240 5 0 0 -17 -10 -37z m2652 -261 c-12 -11 -14 9 -13 140 l2 153 12 -139
c11 -118 11 -142 -1 -154z m-4164 255 l45 -12 31 -115 c48 -180 114 -331 200
-462 128 -193 324 -283 645 -295 151 -6 159 -5 248 22 50 16 94 25 97 22 4 -3
10 -68 15 -144 5 -76 16 -219 24 -318 9 -108 17 -372 20 -659 3 -264 8 -490
11 -503 6 -22 -11 -34 -18 -13 -1 5 -32 12 -68 16 -36 3 -101 12 -145 19 -83
14 -505 14 -635 0 -247 -26 -476 -67 -554 -100 -17 -7 -18 -5 -10 36 12 65 6
323 -11 447 -8 60 -23 133 -34 163 -14 39 -21 90 -24 184 -5 132 -17 202 -63
354 -16 51 -23 95 -19 110 17 73 22 101 15 101 -4 0 -33 -17 -66 -38 -59 -39
-120 -104 -163 -174 -12 -21 -28 -41 -35 -45 -7 -5 -38 -42 -69 -84 -73 -98
-81 -105 -110 -91 -12 6 -16 11 -9 11 6 1 12 6 12 12 0 7 -12 8 -32 4 l-33 -7
33 34 c46 48 40 56 -12 14 -43 -36 -66 -45 -66 -26 0 5 8 14 18 19 9 6 12 11
5 11 -6 0 -15 -4 -18 -10 -8 -14 -45 -13 -45 1 0 6 -7 9 -15 5 -8 -3 -20 1
-27 7 -7 7 -21 16 -30 20 -10 3 -20 18 -24 32 -3 14 -12 25 -19 25 -20 0 -50
55 -80 145 -23 67 -26 92 -23 165 4 85 5 86 100 275 185 369 288 553 370 663
116 153 134 162 342 183 98 9 120 9 127 -2 7 -11 9 -10 9 5 0 14 5 17 23 12
12 -4 42 -12 67 -19z m3861 -272 c-1 -157 2 -234 8 -230 6 3 9 27 6 53 -2 26
-2 38 1 27 14 -49 26 -38 22 19 -3 33 -10 62 -16 64 -28 9 -4 132 26 132 9 0
12 -42 10 -182 0 -108 -4 -162 -8 -133 -4 37 -8 45 -14 32 -5 -9 -6 -31 -4
-47 3 -20 0 -30 -8 -30 -7 0 -14 12 -16 28 -2 15 -4 -8 -4 -50 1 -43 4 -78 9
-78 4 0 7 5 7 10 0 6 9 10 20 10 18 0 19 -3 9 -21 -7 -14 -17 -19 -30 -16 -12
3 -19 0 -19 -10 0 -8 5 -11 12 -7 7 5 8 3 4 -5 -10 -16 -21 -611 -12 -647 6
-23 9 -25 17 -13 8 11 12 11 16 2 6 -17 29 -16 50 1 79 63 160 132 171 144 6
9 12 11 12 5 0 -11 -113 -110 -219 -191 -220 -170 -323 -254 -455 -372 -197
-176 -225 -198 -324 -260 -90 -55 -95 -47 -17 33 47 49 54 68 17 48 -12 -6
-27 -11 -34 -11 -7 1 3 8 22 17 34 16 34 17 10 20 -14 2 -66 -10 -115 -26 -49
-17 -90 -29 -92 -27 -7 6 90 62 129 75 21 7 40 16 43 21 3 5 -8 27 -24 50 -40
56 -120 258 -126 322 -3 29 -12 136 -21 238 -20 244 -36 353 -89 626 -46 231
-52 280 -36 270 25 -16 98 -358 176 -831 8 -49 21 -128 29 -175 20 -113 24
-152 15 -143 -4 4 -12 35 -17 68 -9 55 -10 56 -11 19 -3 -96 56 -266 144 -414
18 -30 36 -68 40 -85 8 -28 9 -28 13 -7 2 14 -15 59 -44 115 -60 118 -90 246
-160 675 l-27 164 52 45 c28 25 97 97 153 161 56 65 171 191 257 282 86 91
185 201 220 245 69 86 212 237 219 230 2 -2 3 -110 3 -240z m39 164 c0 -10 -4
-19 -10 -19 -5 0 -10 12 -10 26 0 14 4 23 10 19 6 -3 10 -15 10 -26z m470 -79
c0 -5 -5 -10 -11 -10 -5 0 -7 5 -4 10 3 6 8 10 11 10 2 0 4 -4 4 -10z m-253
-62 c-2 -13 -4 -3 -4 22 0 25 2 35 4 23 2 -13 2 -33 0 -45z m211 48 c-7 -8
-15 -12 -17 -11 -5 6 10 25 20 25 5 0 4 -6 -3 -14z m-24 -54 c3 -5 -1 -9 -9
-9 -8 0 -15 4 -15 9 0 4 4 8 9 8 6 0 12 -4 15 -8z m-44 -33 c0 -6 -4 -7 -10
-4 -5 3 -10 11 -10 16 0 6 5 7 10 4 6 -3 10 -11 10 -16z m-42 -16 c-4 -22 -22
-20 -26 1 -2 10 3 16 13 16 10 0 15 -7 13 -17z m-52 -61 c-12 -12 -18 8 -10
35 l8 28 4 -28 c2 -16 1 -31 -2 -35z m-66 -22 c0 -5 -7 -10 -15 -10 -8 0 -15
5 -15 10 0 6 7 10 15 10 8 0 15 -4 15 -10z m-1775 -34 c71 -27 135 -19 135 17
0 11 2 18 4 16 2 -2 0 -74 -4 -159 -9 -159 -48 -408 -81 -516 -10 -33 -21 -80
-25 -102 l-7 -42 -130 0 c-125 0 -129 1 -110 18 13 11 22 35 26 67 3 28 12
103 21 167 9 65 18 184 21 265 6 195 18 289 38 296 14 4 56 -5 112 -27z m1675
-96 c0 -5 -9 -10 -20 -10 -11 0 -20 5 -20 10 0 6 9 10 20 10 11 0 20 -4 20
-10z m-113 -107 c-3 -10 -5 -2 -5 17 0 19 2 27 5 18 2 -10 2 -26 0 -35z
m-2076 -63 c6 -61 -10 -219 -29 -290 -10 -40 -26 -74 -80 -175 -21 -38 -44
-90 -51 -115 -8 -25 -18 -49 -23 -54 -4 -6 -8 -20 -8 -33 0 -13 -6 -23 -12
-23 -7 -1 -2 -7 11 -14 23 -13 20 -14 -38 -18 -54 -4 -66 -9 -99 -40 -39 -37
-68 -52 -76 -39 -9 13 -36 379 -36 477 0 75 3 95 19 113 11 12 22 18 25 13 7
-11 66 -3 66 9 0 5 8 9 18 9 10 0 33 13 52 30 19 16 40 30 45 30 15 1 46 30
90 85 53 67 95 107 109 102 6 -2 14 -32 17 -67z m2164 0 c3 -5 1 -10 -4 -10
-6 0 -11 5 -11 10 0 6 2 10 4 10 3 0 8 -4 11 -10z m35 -4 c0 -3 -4 -8 -10 -11
-5 -3 -10 -1 -10 4 0 6 5 11 10 11 6 0 10 -2 10 -4z m17 -18 c-3 -8 -6 -5 -6
6 -1 11 2 17 5 13 3 -3 4 -12 1 -19z m270 -25 c-3 -10 -5 -4 -5 12 0 17 2 24
5 18 2 -7 2 -21 0 -30z m-320 5 c-3 -8 -6 -5 -6 6 -1 11 2 17 5 13 3 -3 4 -12
1 -19z m300 -10 c-3 -7 -5 -2 -5 12 0 14 2 19 5 13 2 -7 2 -19 0 -25z m-381
-15 c-10 -10 -19 5 -10 18 6 11 8 11 12 0 2 -7 1 -15 -2 -18z m101 2 c-7 -13
-14 -20 -15 -14 -2 5 2 16 8 24 18 21 20 18 7 -10z m170 -37 c-3 -8 -6 -5 -6
6 -1 11 2 17 5 13 3 -3 4 -12 1 -19z m40 -25 c-3 -10 -5 -2 -5 17 0 19 2 27 5
18 2 -10 2 -26 0 -35z m20 0 c-3 -10 -5 -2 -5 17 0 19 2 27 5 18 2 -10 2 -26
0 -35z m-333 -123 c-5 -5 -10 3 -11 18 -1 22 0 24 9 8 6 -10 6 -22 2 -26z
m393 18 c-3 -8 -6 -5 -6 6 -1 11 2 17 5 13 3 -3 4 -12 1 -19z m-20 -40 c-3 -7
-5 -2 -5 12 0 14 2 19 5 13 2 -7 2 -19 0 -25z m-354 5 c-7 -2 -13 -12 -13 -21
0 -9 -4 -23 -9 -31 -6 -10 -9 -5 -8 15 2 29 13 44 32 43 6 0 4 -3 -2 -6z
m-4967 -22 c-10 -11 -40 -29 -68 -41 -49 -21 -77 -28 -338 -79 l-134 -27 -9
-37 c-5 -20 -14 -37 -19 -37 -6 0 -8 -6 -5 -14 3 -8 2 -16 -2 -18 -4 -2 -15
-39 -25 -83 -9 -44 -21 -84 -27 -90 -18 -18 16 144 43 200 10 22 22 59 25 83
3 23 9 42 14 42 19 0 176 23 319 46 109 18 167 33 195 49 50 29 52 29 31 6z
m5484 -15 c0 -5 -193 -156 -247 -194 l-33 -23 2 88 2 88 3 -72 c2 -42 8 -73
14 -73 17 0 129 92 129 106 0 7 5 16 12 20 7 4 8 3 4 -4 -9 -16 2 -15 19 1 29
25 40 33 58 40 9 3 17 11 17 17 0 5 5 10 10 10 6 0 10 -2 10 -4z m-486 -19 c4
4 4 -1 0 -11 -5 -13 -9 -14 -14 -6 -4 7 -13 10 -19 6 -7 -5 -9 -1 -5 9 5 11
10 13 19 5 6 -5 15 -7 19 -3z m480 -31 c-3 -8 -24 -27 -47 -42 -23 -16 -54
-41 -69 -56 -16 -15 -28 -25 -28 -22 0 3 -16 -7 -35 -22 -20 -15 -34 -33 -31
-40 3 -9 0 -11 -11 -7 -11 4 -14 3 -9 -6 6 -8 2 -11 -10 -9 -18 3 -19 -9 -19
-222 0 -124 1 -260 3 -302 3 -69 6 -78 23 -78 12 0 19 -7 19 -20 0 -11 5 -20
10 -20 6 0 10 9 10 20 0 11 4 20 9 20 5 0 7 -35 4 -80 -6 -77 -5 -80 16 -80
20 0 21 -5 21 -80 l0 -80 38 0 c38 0 70 -22 86 -60 3 -8 4 1 1 20 -2 19 0 42
5 50 6 10 10 -585 10 -1671 l0 -1687 -108 -6 c-59 -4 -119 -9 -134 -12 l-28
-6 0 2146 0 2145 98 77 c53 43 115 92 137 110 47 39 46 38 39 20z m-6112 -54
c-32 -33 -37 -33 -21 2 7 14 20 26 30 26 15 0 13 -5 -9 -28z m589 11 c-6 -12
-4 -43 5 -88 12 -65 21 -475 9 -464 -2 3 -7 108 -11 234 -3 127 -8 232 -10
234 -2 2 -4 -19 -4 -47 0 -28 -9 -88 -20 -134 -11 -46 -20 -95 -20 -110 0 -16
-5 -28 -11 -28 -7 0 -8 14 -4 40 6 36 5 40 -14 40 -19 0 -27 16 -22 43 1 5 -3
6 -9 2 -5 -3 -10 -16 -11 -28 0 -12 -3 -16 -6 -9 -6 16 21 118 47 177 9 22 21
49 25 60 7 17 9 15 14 -15 5 -27 8 -31 14 -17 4 10 2 27 -4 38 -8 15 -5 27 11
54 22 36 38 49 21 18z m5516 -35 c-3 -8 -6 -5 -6 6 -1 11 2 17 5 13 3 -3 4
-12 1 -19z m-17 8 c0 -3 -4 -8 -10 -11 -5 -3 -10 -1 -10 4 0 6 5 11 10 11 6 0
10 -2 10 -4z m-5610 -19 c0 -2 -12 -14 -27 -28 l-28 -24 24 28 c23 25 31 32
31 24z m-129 -102 c-33 -36 -61 -70 -61 -76 0 -13 -67 -79 -80 -79 -6 0 -10
-5 -10 -11 0 -6 -21 -32 -46 -57 -56 -54 -84 -99 -84 -131 0 -24 -28 -66 -84
-129 -17 -18 -49 -57 -71 -86 -36 -48 -122 -152 -152 -183 -6 -7 -16 -13 -22
-13 -5 0 -13 -5 -17 -12 -5 -7 -3 -8 6 -3 8 5 11 4 6 -3 -4 -6 -14 -8 -23 -5
-12 5 -15 2 -10 -10 3 -9 1 -19 -5 -23 -7 -4 -8 -3 -4 4 14 23 -45 13 -65 -10
-20 -25 -25 -13 -9 24 15 36 102 261 107 278 12 40 -31 -50 -71 -146 -69 -170
-303 -656 -318 -662 -5 -2 -23 -34 -40 -70 -42 -88 -196 -323 -312 -476 -51
-66 -106 -141 -123 -166 -17 -25 -78 -100 -135 -166 -56 -67 -127 -152 -156
-190 -29 -38 -99 -116 -155 -175 -224 -233 -429 -463 -421 -472 3 -3 -32 -43
-78 -89 -83 -84 -69 -63 27 42 l50 54 -50 -44 c-94 -84 -180 -187 -177 -212 3
-22 2 -22 -25 5 l-28 28 145 142 c80 78 181 183 224 232 44 50 146 160 227
245 220 232 378 420 622 740 217 285 295 404 423 650 65 124 306 667 375 846
22 55 56 129 77 165 21 35 61 114 87 176 27 62 51 111 52 109 5 -5 -27 -88
-73 -189 -25 -55 -43 -101 -41 -104 7 -6 118 35 242 89 116 51 186 95 270 172
33 30 62 55 64 56 2 0 -24 -29 -58 -65z m5756 -42 c-2 -21 -4 -4 -4 37 0 41 2
58 4 38 2 -21 2 -55 0 -75z m-5677 83 c0 -2 -8 -10 -17 -17 -16 -13 -17 -12
-4 4 13 16 21 21 21 13z m1007 -41 c-4 -8 -11 -15 -17 -15 -7 0 -7 6 0 21 13
23 26 19 17 -6z m2665 -10 c11 -7 -65 -10 -243 -10 -142 0 -259 4 -259 9 0 4
-11 6 -25 4 -14 -3 -25 -1 -25 4 0 13 530 6 552 -7z m1714 -2157 l-1 -2143
-130 -7 c-129 -8 -765 -11 -772 -4 -2 2 5 45 17 97 23 105 27 184 8 173 -8 -5
-9 0 -6 14 4 12 3 20 -2 17 -9 -6 -19 24 -26 85 -3 24 -23 110 -44 190 -56
213 -62 253 -55 323 5 42 2 81 -8 122 -38 152 -61 376 -88 854 -10 184 -10
216 2 219 32 11 86 81 98 128 7 27 24 83 37 124 39 125 39 140 7 183 -17 23
-52 49 -90 68 l-63 30 0 58 c0 53 -12 140 -26 184 -3 11 0 17 9 17 10 0 13 -7
10 -18 -8 -31 30 -23 52 11 11 17 38 43 60 58 22 15 61 45 85 67 l44 39 4 106
4 106 -46 28 c-131 78 -171 107 -153 111 10 2 16 9 14 16 -8 20 2 30 80 82 69
47 304 244 458 384 39 36 111 96 161 134 l89 68 6 -103 c6 -113 12 -99 9 19
-1 46 2 72 9 72 6 0 10 5 9 10 -2 7 223 214 238 219 1 1 1 -963 0 -2141z
m-2232 1967 c9 -77 22 -146 29 -152 7 -7 46 -22 87 -32 65 -17 266 -95 280
-108 13 -12 -66 14 -175 58 -66 26 -141 50 -167 54 -54 8 -48 -4 -68 154 -10
85 -13 178 -6 170 2 -2 12 -67 20 -144z m464 138 c-18 -3 -30 -14 -39 -36 -7
-18 -19 -36 -26 -40 -7 -4 -13 -15 -13 -22 0 -8 -7 -15 -15 -15 -9 0 -26 -7
-40 -16 -21 -14 -28 -14 -70 0 -60 21 -75 20 -75 -3 0 -11 -8 -22 -17 -24 -53
-15 -73 -16 -73 -7 0 5 -6 10 -14 10 -14 0 -26 29 -40 92 -3 14 -9 33 -12 42
-5 13 7 16 73 19 112 4 393 5 361 0z m169 -35 c-3 -7 -5 -2 -5 12 0 14 2 19 5
13 2 -7 2 -19 0 -25z m1890 -240 c-1 -46 -3 -11 -3 77 0 88 2 125 3 83 2 -42
2 -114 0 -160z m-2472 23 c4 -17 3 -23 -4 -16 -5 6 -14 45 -20 88 -15 109 -12
140 4 38 8 -46 16 -95 20 -110z m-438 64 c-7 -13 -14 -20 -15 -14 -2 5 2 16 8
24 18 21 20 18 7 -10z m66 -45 c-4 -14 0 -20 11 -20 9 0 16 5 16 10 0 6 5 10
10 10 6 0 10 -7 10 -16 0 -11 -8 -14 -32 -12 -25 2 -34 8 -36 26 -2 14 2 22
11 22 10 0 13 -7 10 -20z m-124 -54 c14 -17 49 -54 79 -82 l54 -52 -8 -58 c-4
-39 -9 -53 -14 -40 -5 17 -8 15 -17 -10 -6 -16 -16 -48 -22 -71 -7 -24 -15
-43 -19 -43 -18 0 -34 -63 -28 -110 5 -43 3 -51 -14 -60 -17 -9 -18 -15 -10
-31 13 -23 4 -62 -12 -53 -6 4 -9 3 -7 -2 3 -5 11 -22 19 -37 11 -22 12 -32 2
-47 -15 -24 -15 -63 -2 -109 5 -19 6 -40 1 -50 -10 -19 23 -106 54 -144 11
-13 48 -45 82 -71 51 -39 73 -50 111 -54 43 -4 52 -1 75 22 33 33 35 82 8 141
-28 63 -21 103 26 145 40 34 83 104 83 133 0 8 7 20 15 27 9 8 15 8 15 2 0 -6
9 -66 20 -134 11 -68 23 -139 26 -159 l5 -37 114 -4 c67 -2 119 -8 125 -14 9
-9 9 -59 0 -195 -12 -190 -24 -407 -40 -709 -10 -205 -44 -396 -87 -500 -3 -8
-7 -19 -7 -25 -1 -5 -9 -26 -18 -45 -33 -72 -68 -158 -68 -168 0 -13 -50 -20
-210 -27 -69 -3 -165 -8 -215 -11 -49 -3 -96 -1 -103 4 -10 7 -14 89 -19 362
l-6 353 29 -7 c16 -4 37 -8 46 -9 9 -1 15 -4 12 -8 -4 -7 23 -19 40 -18 5 0
12 -3 15 -8 12 -16 77 -36 133 -40 51 -4 60 -2 83 21 39 39 32 79 -31 173 -19
28 -34 55 -34 59 0 4 -11 22 -25 40 -30 39 -76 54 -123 42 -21 -6 -38 -5 -50
2 -15 9 -14 10 6 5 22 -6 22 -6 22 119 0 119 -1 126 -20 126 -17 0 -20 -7 -20
-40 0 -43 -23 -57 -35 -20 -3 11 -13 20 -21 20 -11 0 -13 6 -9 20 4 12 2 20
-5 20 -8 0 -10 -10 -6 -27 3 -16 8 -84 10 -153 7 -180 -9 -57 -29 225 -18 259
-20 491 -4 500 6 4 7 14 4 24 -4 9 -11 205 -16 436 -5 231 -11 439 -15 463 -6
38 -5 42 12 35 10 -4 30 -21 43 -37z m876 17 c-10 -14 -21 -38 -25 -52 -8 -25
-8 -25 -9 -3 -1 28 25 82 40 82 7 0 4 -11 -6 -27z m728 -73 c4 -22 3 -29 -2
-20 -5 8 -11 35 -15 60 -6 50 6 21 17 -40z m-698 30 c3 -5 -1 -10 -10 -10 -9
0 -13 5 -10 10 3 6 8 10 10 10 2 0 7 -4 10 -10z m2062 -142 c-2 -13 -4 -3 -4
22 0 25 2 35 4 23 2 -13 2 -33 0 -45z m-2472 -172 c32 -434 59 -600 98 -616
20 -8 19 -9 -10 -9 -37 -1 -33 -10 -58 139 -16 93 -54 556 -55 654 0 101 10
34 25 -168z m2265 204 c0 -5 -4 -10 -10 -10 -5 0 -10 5 -10 10 0 6 5 10 10 10
6 0 10 -4 10 -10z m-1651 -44 c-3 -3 -16 -2 -29 1 -22 6 -22 7 -4 14 18 6 43
-5 33 -15z m-156 -13 c-7 -2 -19 -2 -25 0 -7 3 -2 5 12 5 14 0 19 -2 13 -5z
m-393 -40 c62 -28 105 -69 119 -116 7 -26 10 -58 7 -72 -4 -14 -2 -44 4 -66 6
-23 16 -104 21 -182 5 -78 12 -164 15 -191 7 -59 0 -66 -74 -66 -66 0 -64 -5
-91 215 -33 271 -50 523 -33 500 4 -6 18 -15 32 -22z m-3103 -65 c-2 -13 -4
-5 -4 17 -1 22 1 32 4 23 2 -10 2 -28 0 -40z m5489 -22 c-1 -24 -20 -25 -30
-1 -3 9 0 12 10 8 7 -3 14 0 14 6 0 6 2 11 4 11 2 0 3 -11 2 -24z m-1901 -358
c-9 -336 -11 -358 -21 -361 -11 -3 -11 49 -1 362 8 242 10 271 24 271 3 0 2
-123 -2 -272z m1885 168 c-7 -7 -10 4 -9 30 1 39 1 39 10 9 5 -18 5 -33 -1
-39z m-1475 -12 c-1 -5 -4 -33 -9 -63 -6 -36 -11 -49 -17 -40 -10 16 -12 80
-3 104 7 16 29 16 29 -1z m-5091 -16 c-4 -7 -13 -20 -19 -28 -7 -8 -17 -28
-22 -45 -9 -27 -13 -29 -45 -27 -20 2 -39 -1 -43 -7 -4 -7 9 -11 36 -11 41 0
41 0 26 -22 -12 -19 -22 -22 -61 -20 -35 3 -46 0 -46 -10 0 -22 49 -42 66 -27
21 17 18 5 -19 -75 -25 -54 -43 -77 -69 -93 -41 -24 -165 -50 -307 -63 -57 -5
-106 -12 -109 -15 -17 -17 300 12 378 35 46 13 55 13 41 -4 -16 -19 -101 -33
-271 -46 -202 -16 -328 -58 -378 -127 -20 -27 -23 -28 -135 -31 -64 -1 -118 1
-120 5 -3 5 25 26 61 47 152 88 190 111 252 151 374 243 580 360 705 401 84
27 88 28 79 12z m5369 -163 c27 -15 51 -33 53 -39 8 -24 -23 -186 -40 -205
-19 -21 -118 -75 -156 -85 -14 -4 -5 4 20 18 111 60 150 116 150 217 0 54 -4
58 -137 148 -50 34 -97 69 -105 78 -7 9 28 -11 77 -44 50 -33 112 -73 138 -88z
m-4688 59 c-8 -20 -15 -39 -15 -42 0 -3 -2 -3 -5 0 -6 5 22 78 30 78 3 0 -2
-16 -10 -36z m-43 -109 c-2 -14 -9 -25 -14 -25 -5 0 -7 3 -5 8 2 4 7 15 10 25
9 25 15 21 9 -8z m-46 -99 c-9 -14 -13 -33 -9 -42 4 -12 3 -15 -5 -10 -7 4
-13 0 -14 -11 -2 -35 -4 -41 -44 -136 -13 -32 -24 -69 -24 -82 0 -16 -20 -44
-57 -83 -32 -32 -64 -66 -71 -75 -7 -10 -17 -15 -22 -12 -4 3 -6 -4 -3 -15 3
-11 9 -20 14 -20 5 0 6 -7 2 -16 -5 -13 -7 -13 -14 -2 -6 9 -9 3 -9 -18 0 -17
-3 -34 -7 -38 -4 -3 -8 -16 -10 -28 -2 -12 -12 -31 -22 -43 -10 -11 -24 -36
-32 -55 -7 -19 -59 -84 -116 -144 -93 -99 -121 -140 -167 -245 -6 -14 -62 -76
-123 -139 -62 -63 -113 -118 -113 -122 0 -11 -62 -60 -70 -55 -5 3 -10 -2 -14
-10 -3 -10 -19 -15 -44 -15 -34 0 -38 3 -37 23 2 18 7 22 31 20 18 -2 24 1 16
6 -10 6 1 22 41 62 29 30 57 67 61 82 3 15 10 27 15 27 4 0 36 34 70 75 34 42
66 73 72 70 5 -4 8 -3 7 2 -1 4 4 18 11 31 10 19 15 21 27 11 17 -14 19 2 2
20 -7 7 -8 11 -3 9 6 -2 10 0 10 3 0 14 28 38 38 32 5 -3 7 -1 3 5 -3 5 9 30
28 54 46 56 237 339 304 448 29 47 67 106 85 132 18 25 57 91 88 145 31 54 68
120 83 146 15 27 30 46 33 43 3 -3 -2 -17 -11 -30z m3121 16 c-10 -10 -18 -27
-18 -38 -1 -18 -2 -18 -6 -1 -4 16 21 57 35 57 3 0 -2 -8 -11 -18z m-823 -83
c15 -7 30 -26 36 -45 14 -40 3 -195 -16 -242 l-14 -34 -62 7 c-35 4 -144 23
-243 42 -99 18 -232 43 -295 54 -110 19 -218 44 -225 51 -2 2 1 22 7 45 17 70
52 83 278 107 234 26 495 33 534 15z m1404 -26 c-10 -2 -28 -2 -40 0 -13 2 -5
4 17 4 22 1 32 -1 23 -4z m-1009 -79 c31 -39 25 -162 -12 -233 -11 -23 -15
-23 -95 -18 -46 3 -87 9 -92 13 -10 12 16 158 35 195 35 67 127 91 164 43z
m1853 -71 c28 -60 32 -79 34 -167 l2 -100 49 -19 c55 -21 107 -58 128 -90 13
-20 10 -33 -30 -137 -24 -63 -44 -126 -45 -140 0 -27 -25 -70 -40 -70 -4 0 -4
12 1 28 41 124 79 255 79 272 0 52 -44 101 -126 141 -55 26 -62 42 -56 128 5
80 -11 145 -42 176 -17 17 -20 27 -13 34 20 20 27 12 59 -56z m-493 -418 c-6
-115 -14 -441 -16 -723 l-5 -514 -25 24 c-22 21 -24 28 -18 73 4 28 9 196 10
375 2 179 8 402 14 495 6 94 15 291 21 439 6 148 14 274 18 280 12 19 13 -232
1 -449z m-4856 400 c-3 -9 -8 -14 -10 -11 -3 3 -2 9 2 15 9 16 15 13 8 -4z
m2343 -11 c63 -14 205 -42 337 -66 l58 -11 -30 -31 c-21 -22 -37 -57 -55 -122
-25 -84 -59 -239 -73 -326 -6 -40 -23 -53 -23 -18 0 15 -7 20 -29 20 -28 0
-28 1 -24 48 5 51 64 298 89 375 9 26 20 47 25 47 5 0 9 5 9 10 0 23 -22 7
-37 -27 -10 -21 -19 -40 -20 -42 -2 -3 -89 15 -193 40 -202 47 -207 49 -180
100 13 24 54 25 146 3z m-193 -15 c-8 -8 -16 -8 -30 0 -16 9 -14 10 12 11 21
0 26 -3 18 -11z m-81 -31 c-37 -39 -105 -180 -127 -263 -8 -33 -15 -86 -15
-120 0 -44 -3 -56 -10 -45 -14 20 -3 118 22 198 38 125 118 262 152 262 5 0
-4 -15 -22 -32z m-2709 5 c-7 -2 -19 -2 -25 0 -7 3 -2 5 12 5 14 0 19 -2 13
-5z m204 -9 c-3 -3 -74 -10 -158 -15 -84 -4 -155 -12 -158 -16 -3 -4 -17 -9
-31 -10 -133 -8 -195 -15 -205 -23 -6 -5 -42 -12 -81 -14 -61 -5 -72 -9 -91
-33 -13 -15 -23 -22 -23 -16 0 17 61 100 80 109 8 3 143 10 300 14 157 3 305
7 329 8 24 1 42 -1 38 -4z m-819 -78 c11 -24 25 -47 31 -50 6 -4 11 -12 11
-19 0 -8 -3 -8 -11 0 -8 8 -20 6 -42 -6 -18 -9 -34 -19 -35 -24 -2 -4 -7 -5
-11 -2 -5 2 -3 -13 3 -35 7 -28 16 -40 28 -40 11 0 18 -7 18 -20 0 -11 -4 -20
-10 -20 -5 0 -10 -6 -10 -14 0 -13 -17 -18 -113 -32 -53 -8 -87 2 -87 26 0 13
-7 20 -20 20 -18 0 -25 10 -21 32 1 8 -88 -37 -103 -52 -9 -9 8 -49 58 -132
15 -27 26 -48 23 -48 -13 0 -157 233 -157 253 0 2 28 14 61 27 75 27 192 85
279 139 36 22 70 40 77 41 7 0 21 -20 31 -44z m4231 9 c189 -33 230 -44 180
-46 -15 -1 -8 -5 19 -11 76 -17 39 -19 -64 -3 -127 19 -120 20 -132 -14 l-10
-29 -109 23 c-122 27 -153 35 -153 42 0 2 9 13 20 25 11 12 20 28 20 35 0 18
10 17 229 -22z m-3061 -7 c-9 -13 -30 -47 -47 -75 -33 -53 -52 -73 -30 -30 23
44 79 127 85 127 3 0 0 -10 -8 -22z m2507 -9 c96 -20 126 -29 92 -29 -26 0
-201 42 -217 52 -12 7 -10 8 5 4 11 -3 65 -15 120 -27z m1065 -54 c91 -10 167
-19 169 -21 13 -12 -337 8 -373 22 -23 9 -8 27 18 20 11 -2 95 -12 186 -21z
m-382 -11 c102 -21 101 -30 -3 -13 -45 7 -80 8 -85 3 -5 -5 -12 -50 -16 -101
-7 -91 -7 -91 17 -96 19 -3 20 -5 4 -5 -43 -3 -47 8 -39 122 8 122 -2 114 122
90z m-361 0 c-3 -3 -12 -4 -19 -1 -8 3 -5 6 6 6 11 1 17 -2 13 -5z m40 -10
c-3 -3 -12 -4 -19 -1 -8 3 -5 6 6 6 11 1 17 -2 13 -5z m951 -19 c2 -15 1 -17
-6 -6 -6 8 -8 -29 -5 -100 3 -63 0 -139 -6 -169 -9 -50 -10 -47 -6 43 3 63 -1
125 -10 175 -8 42 -15 78 -15 80 0 2 10 2 22 0 14 -2 24 -11 26 -23z m-901 9
c-3 -3 -12 -4 -19 -1 -8 3 -5 6 6 6 11 1 17 -2 13 -5z m622 -89 c-1 -60 -6
-50 -12 23 -2 32 -1 48 4 40 5 -7 8 -35 8 -63z m-3731 -100 c-22 -36 -43 -64
-45 -61 -5 5 74 126 82 126 2 0 -14 -29 -37 -65z m5660 -63 c7 -51 20 -97 33
-119 28 -45 15 -62 -33 -43 -43 18 -43 17 -25 35 12 12 14 22 7 41 -12 31 -13
192 -2 179 5 -6 14 -48 20 -93z m-2406 -46 c0 -84 0 -85 27 -89 16 -3 11 -4
-13 -4 l-38 1 6 66 c3 36 6 78 6 94 0 16 3 27 6 23 3 -3 6 -44 6 -91z m-3150
62 c-7 -7 -12 -8 -12 -2 0 14 12 26 19 19 2 -3 -1 -11 -7 -17z m2072 -33 c5
-22 4 -26 -4 -15 -5 8 -10 24 -10 34 0 26 6 18 14 -19z m737 -89 c-14 -36 -22
-33 -9 5 6 16 12 28 14 26 3 -2 0 -16 -5 -31z m191 4 c93 -20 107 -25 112 -45
4 -14 16 -25 32 -29 15 -4 45 -22 68 -40 23 -18 58 -40 79 -50 20 -9 37 -20
37 -24 -2 -93 -46 -456 -57 -475 -2 -4 -7 -5 -11 -3 -4 2 -8 -90 -9 -205 -2
-223 -10 -274 -33 -195 -7 26 -17 49 -21 52 -5 3 -9 13 -9 23 0 10 -9 26 -20
36 -20 18 -20 17 -20 -7 0 -14 12 -66 26 -114 45 -152 52 -202 58 -445 4 -129
11 -262 16 -295 19 -132 21 -150 11 -129 -5 11 -10 16 -11 10 -3 -20 -21 39
-44 144 -14 58 -36 142 -50 186 -15 43 -33 106 -42 140 -8 33 -23 83 -34 110
-10 28 -32 107 -49 175 -35 140 -47 177 -102 335 -38 109 -94 297 -109 365 -4
19 -11 117 -14 217 -6 179 -6 183 19 238 21 50 28 56 47 52 13 -3 71 -15 130
-27z m965 -52 c-3 -7 -5 -2 -5 12 0 14 2 19 5 13 2 -7 2 -19 0 -25z m-640 5
c-20 -2 -52 -2 -70 0 -17 2 0 4 38 4 39 0 53 -2 32 -4z m762 -25 c-30 -44 -29
-43 -29 -31 0 11 38 63 46 63 3 0 -5 -15 -17 -32z m-646 15 c-13 -2 -35 -2
-50 0 -16 2 -5 4 22 4 28 0 40 -2 28 -4z m688 -17 c-13 -14 -27 -40 -31 -58
l-8 -33 -1 31 c-1 29 35 84 55 84 4 0 -3 -11 -15 -24z m-4442 -34 c-19 -21
-36 -37 -38 -35 -5 3 59 73 67 73 2 0 -11 -17 -29 -38z m4295 -642 c5 -173 3
-238 -4 -221 -6 15 -12 189 -14 465 -4 443 1 375 18 -244z m179 635 c-3 -9 -8
-14 -10 -11 -3 3 -2 9 2 15 9 16 15 13 8 -4z m1391 -47 c3 -24 12 -164 21
-313 23 -393 43 -607 67 -720 12 -57 22 -143 23 -200 2 -72 11 -136 33 -230
17 -71 36 -160 41 -196 6 -36 20 -92 31 -124 11 -32 20 -74 20 -94 0 -47 -37
-304 -51 -359 -16 -58 -22 -47 -9 14 6 27 20 114 30 194 19 150 17 188 -13
246 -29 56 -115 451 -123 563 -5 75 -22 207 -29 231 -24 76 -88 973 -72 1013
11 30 26 18 31 -25z m-2198 -301 c-28 -212 -43 -395 -50 -592 l-4 -130 18 105
c10 58 25 134 34 170 8 36 18 99 22 140 4 41 21 122 39 180 18 60 35 141 39
187 9 110 24 157 54 161 27 4 29 -17 7 -98 -8 -30 -15 -80 -15 -110 -1 -30 -5
-73 -9 -95 -57 -266 -63 -300 -80 -399 -14 -83 -52 -194 -83 -244 -19 -31 -24
-58 -31 -157 -4 -66 -11 -169 -15 -230 l-7 -110 -5 125 c-7 140 5 540 20 730
20 251 67 667 78 690 17 38 10 -150 -12 -323z m62 213 c-6 -36 -11 -83 -10
-105 1 -29 -1 -36 -8 -25 -11 17 -13 106 -4 174 6 40 9 45 20 34 11 -11 11
-26 2 -78z m-4688 30 c0 -5 -46 -33 -102 -61 -73 -38 -127 -76 -192 -134 -86
-77 -182 -155 -271 -219 l-40 -29 25 28 c14 15 50 46 80 69 31 22 113 91 184
151 94 81 152 122 219 156 51 25 93 47 95 48 1 0 2 -3 2 -9z m6404 -122 c10
-35 37 -128 62 -208 52 -172 115 -428 113 -462 -2 -23 -2 -22 -6 2 -10 56
-106 422 -138 525 -54 176 -65 216 -56 211 5 -3 16 -34 25 -68z m24 -195 c169
-594 183 -722 102 -926 -39 -100 -83 -374 -69 -438 6 -29 7 -104 2 -198 l-8
-153 -46 41 c-37 32 -52 56 -78 124 -17 46 -46 106 -63 133 -24 35 -34 64 -39
110 -5 53 -13 73 -53 128 -25 35 -46 68 -46 73 0 5 25 19 56 32 31 14 69 37
85 52 l29 27 0 593 c0 327 3 604 6 616 7 26 34 35 50 17 6 -7 38 -111 72 -231z
m-1532 82 c-4 -86 -11 -167 -16 -180 -14 -38 -31 -344 -28 -505 6 -334 2 -366
-68 -440 -52 -56 -133 -101 -165 -93 -15 4 -20 2 -15 -5 4 -7 -1 -10 -14 -9
-28 2 -25 15 8 29 99 40 155 73 172 101 37 60 43 122 77 804 3 62 9 111 13
108 4 -2 10 48 14 113 8 145 17 232 24 232 3 0 2 -70 -2 -155z m79 15 c18
-150 39 -267 70 -388 42 -160 73 -238 114 -289 34 -42 46 -89 57 -225 l7 -87
31 -3 c29 -3 32 -7 57 -83 14 -44 33 -94 42 -111 9 -17 25 -55 36 -84 l20 -53
-27 26 c-35 33 -109 53 -254 67 -142 15 -247 7 -348 -25 -41 -13 -100 -30
-130 -38 -45 -11 -56 -17 -58 -37 -3 -18 -6 -20 -14 -9 -6 9 -7 -20 -3 -86 8
-109 23 -172 24 -97 1 41 1 42 37 42 19 0 88 -11 152 -24 64 -13 158 -29 207
-36 50 -6 133 -20 185 -30 293 -57 630 -51 898 17 47 11 66 21 72 37 7 16 9
11 9 -25 1 -37 -5 -54 -31 -89 -70 -92 -78 -105 -89 -156 -9 -38 -17 -54 -31
-57 -13 -4 -18 -12 -16 -24 3 -16 13 -18 83 -15 44 1 108 0 142 -4 56 -5 62
-8 74 -35 6 -17 34 -51 61 -76 26 -26 48 -52 48 -58 0 -7 7 -18 15 -25 15 -12
55 -94 55 -111 0 -4 -29 5 -65 21 -69 31 -246 90 -270 90 -8 0 -69 18 -137 39
-131 42 -418 117 -583 151 -139 29 -259 62 -480 133 -271 86 -293 94 -310 125
l-14 27 -1 -40 -2 -40 -14 50 c-14 54 -40 207 -48 293 -4 38 -2 52 8 52 28 0
173 80 218 119 85 76 90 95 99 400 10 354 46 837 66 891 8 20 29 -49 38 -120z
m-3765 -120 c0 -5 -5 -10 -11 -10 -5 0 -7 5 -4 10 3 6 8 10 11 10 2 0 4 -4 4
-10z m-13 -26 c-3 -3 -12 -4 -19 -1 -8 3 -5 6 6 6 11 1 17 -2 13 -5z m-58 -53
c-45 -52 -60 -52 -19 -1 17 22 36 40 42 40 6 0 -5 -18 -23 -39z m5566 -261
c21 -24 30 -69 45 -245 6 -71 18 -170 26 -220 8 -49 19 -115 24 -145 5 -30 18
-98 30 -150 12 -52 25 -119 30 -148 7 -43 17 -61 50 -93 22 -21 40 -45 40 -51
0 -7 3 -24 7 -37 4 -17 3 -22 -5 -17 -7 4 -12 17 -12 29 0 25 -45 85 -56 75
-4 -4 -6 -100 -5 -213 1 -215 -3 -255 -24 -255 -8 0 -21 -24 -30 -56 -31 -106
-181 -377 -196 -353 -17 28 -7 95 21 139 16 25 53 95 82 155 l53 110 -1 125
c-1 129 -4 146 -63 299 -11 30 -28 85 -37 123 -9 37 -19 68 -23 68 -7 0 -36
-43 -70 -104 -21 -36 -22 -48 -16 -132 9 -115 4 -134 -38 -135 l-32 -1 30 -7
c39 -8 50 -51 13 -51 -20 -1 -21 -2 -6 -10 17 -11 44 -77 34 -87 -3 -3 -12 2
-21 11 -9 9 -26 16 -38 15 -19 -1 -19 -2 6 -13 36 -16 47 -33 47 -73 0 -47 -8
-62 -32 -55 -11 3 -24 -1 -29 -9 -6 -11 -11 -11 -20 -2 -10 10 -12 89 -12 315
1 373 15 480 84 662 25 66 33 108 45 240 7 89 18 177 24 196 5 19 10 47 10 62
0 25 22 58 39 58 4 0 16 -9 26 -20z m-676 -94 c-2 -2 -56 -6 -119 -10 -63 -3
-185 -11 -270 -16 -186 -12 -400 -11 -400 1 0 5 84 10 188 10 103 1 241 5 307
9 143 8 300 11 294 6z m-63 -34 c-3 -5 -6 -33 -7 -63 -5 -153 -50 -239 -126
-239 -22 0 -44 -5 -49 -10 -14 -14 -50 -15 -175 -6 -74 5 -109 4 -113 -3 -5
-7 -44 -11 -101 -11 l-93 0 -6 83 c-3 45 -7 114 -9 153 l-2 71 285 12 c157 7
287 15 289 17 8 8 112 4 107 -4z m279 -20 c-3 -3 -11 0 -18 7 -9 10 -8 11 6 5
10 -3 15 -9 12 -12z m-976 -334 c0 -5 45 -9 99 -10 l97 -2 -105 -5 c-58 -4
-106 -6 -107 -6 -3 1 -4 338 -2 350 2 6 6 -64 9 -155 4 -91 8 -168 9 -172z
m995 306 c14 -13 16 -46 15 -217 -1 -111 -4 -190 -6 -175 -2 15 -18 39 -34 52
l-30 26 7 165 c7 171 12 186 48 149z m-1458 -186 c-4 -126 -8 -164 -21 -178
-8 -9 -13 -24 -10 -33 7 -15 -27 -91 -45 -102 -10 -6 -3 21 10 40 13 18 19 60
11 73 -10 17 -32 -9 -59 -68 -22 -50 -45 -74 -79 -84 -30 -10 -29 5 3 35 23
21 25 29 19 74 -8 59 -29 89 -46 65 -7 -10 -9 13 -7 78 3 98 10 112 54 112 32
0 69 34 105 98 18 31 38 62 44 68 21 24 27 -20 21 -178z m-1049 135 c-3 -10
-5 -4 -5 12 0 17 2 24 5 18 2 -7 2 -21 0 -30z m371 -5 c31 -34 118 -216 162
-338 21 -60 72 -191 114 -292 86 -212 106 -287 106 -401 0 -72 -3 -87 -25
-120 -30 -44 -56 -47 -84 -10 -32 40 -35 68 -17 162 24 126 21 146 -33 278
-72 173 -116 274 -142 324 -20 39 -36 79 -110 288 -20 56 -23 88 -13 115 8 21
17 20 42 -6z m1794 -255 c-51 -2 -132 -2 -180 0 -48 1 -6 3 93 3 99 0 138 -2
87 -3z m-2205 -50 c-3 -10 -5 -4 -5 12 0 17 2 24 5 18 2 -7 2 -21 0 -30z
m2010 -130 c3 -7 -24 -26 -64 -44 -37 -18 -75 -36 -83 -41 -8 -4 -27 -13 -42
-19 -28 -11 -45 -60 -32 -94 6 -15 4 -16 -14 -6 -31 17 -58 55 -72 105 -16 58
-10 73 42 96 36 17 62 19 152 17 75 -1 111 -6 113 -14z m413 -140 c45 -52 75
-101 66 -111 -3 -3 -6 0 -6 7 0 7 -21 36 -47 64 -94 102 -101 111 -77 99 12
-7 41 -33 64 -59z m-260 -143 c146 -30 215 -49 207 -56 -2 -2 -35 3 -73 11
-38 7 -137 23 -221 35 -83 11 -169 27 -190 35 -37 15 -36 15 47 10 47 -2 150
-18 230 -35z m1157 -2 c-3 -8 -6 -5 -6 6 -1 11 2 17 5 13 3 -3 4 -12 1 -19z
m-837 -59 c11 -6 9 -8 -10 -8 -14 0 -36 6 -50 15 -25 15 -25 15 10 8 19 -3 42
-10 50 -15z m93 -122 c14 -34 28 -77 32 -94 5 -28 4 -33 -12 -33 -14 0 -18 8
-19 43 0 23 -12 70 -26 105 -14 34 -20 58 -13 52 7 -6 24 -39 38 -73z m436
-27 c46 -114 54 -234 23 -337 -21 -68 -57 -133 -77 -140 -6 -2 -28 19 -49 47
l-38 50 15 47 c28 87 37 153 37 269 0 63 5 124 11 135 20 38 43 17 78 -71z
m-2172 8 c-3 -7 -5 -2 -5 12 0 14 2 19 5 13 2 -7 2 -19 0 -25z m2370 -145 c-3
-10 -5 -2 -5 17 0 19 2 27 5 18 2 -10 2 -26 0 -35z m-551 -35 l29 -33 -30 26
c-16 15 -37 29 -45 32 -13 5 -13 6 1 6 8 1 28 -14 45 -31z m-32 -37 c14 -22
30 -42 36 -46 5 -3 15 -16 21 -28 10 -19 10 -20 -3 -7 -75 77 -109 120 -94
120 8 0 27 -18 40 -39z m573 -48 c-2 -16 -4 -5 -4 22 0 28 2 40 4 28 2 -13 2
-35 0 -50z m1343 -95 l0 -153 -135 3 -135 3 0 139 0 138 73 6 c99 8 148 12
175 14 22 2 22 1 22 -150z m-1950 102 c11 -22 19 -40 16 -40 -4 0 -46 68 -46
76 0 13 12 -1 30 -36z m-3663 -55 c54 -13 139 -28 411 -71 113 -18 113 -18
107 -43 -4 -14 -8 -28 -11 -30 -11 -11 -163 11 -372 54 -40 8 -78 15 -85 14
-21 -1 74 -28 158 -45 44 -8 111 -22 148 -31 l68 -15 -5 -41 c-5 -40 -5 -40 5
-12 17 43 37 64 59 58 16 -4 18 -9 9 -24 -14 -28 -44 -127 -84 -282 -35 -139
-52 -184 -77 -205 -11 -8 -56 0 -188 33 -96 24 -195 51 -219 59 -24 9 -51 16
-60 16 -10 0 -26 6 -36 14 -17 12 -17 19 -6 92 11 70 62 330 76 393 5 18 11
22 28 18 20 -6 20 -5 5 7 -21 16 -24 56 -4 56 8 0 41 -7 73 -15z m3829 -90
c15 -20 25 -38 22 -40 -3 -3 -17 13 -32 35 -33 49 -27 52 10 5z m-1526 -15
c277 -49 669 -90 865 -90 284 -1 432 -22 565 -82 117 -52 159 -89 225 -193 33
-53 81 -126 108 -162 26 -37 47 -71 47 -75 0 -5 -12 -14 -27 -20 -22 -9 -24
-12 -10 -15 9 -3 17 -9 17 -14 0 -6 13 -15 29 -20 36 -13 113 -109 152 -190
16 -33 29 -61 29 -63 0 -2 -18 15 -40 37 -31 30 -44 37 -52 29 -9 -9 -6 -18
12 -37 31 -34 18 -32 -35 5 -25 17 -93 53 -152 80 -59 27 -130 60 -157 74 -27
15 -57 26 -65 26 -9 0 -52 14 -96 31 -44 17 -120 43 -169 60 -49 16 -114 41
-145 55 -31 15 -146 58 -256 95 -110 37 -256 88 -325 114 -69 26 -174 64 -235
85 -131 45 -348 132 -427 171 -68 35 -95 68 -78 98 14 27 67 28 220 1z m1557
-123 c19 -32 33 -60 30 -63 -5 -5 -114 157 -124 184 -9 26 54 -56 94 -121z
m112 84 c39 -47 52 -81 31 -81 -5 0 -10 9 -10 19 0 11 -6 26 -12 33 -7 8 -26
28 -42 46 -17 18 -25 32 -19 32 6 0 30 -22 52 -49z m-84 -52 c22 -41 11 -36
-14 7 -12 19 -16 32 -11 29 6 -3 17 -19 25 -36z m110 -279 c12 -14 47 -59 76
-100 30 -41 61 -82 71 -90 17 -15 104 -170 95 -170 -3 0 -20 24 -38 53 -19 28
-81 117 -138 197 -112 156 -155 223 -165 261 -4 13 11 -10 34 -51 23 -41 52
-86 65 -100z m-4015 -205 c45 -5 60 -11 68 -28 9 -19 11 -19 11 -4 1 16 7 17
49 11 71 -10 212 -52 255 -77 l39 -22 -5 -135 -6 -135 12 128 c10 107 15 131
32 143 50 37 51 24 25 -311 -15 -187 -30 -506 -30 -655 0 -74 -5 -178 -12
-230 -6 -52 -12 -113 -12 -135 -1 -33 -5 -41 -23 -43 -12 -2 -91 13 -175 33
-182 43 -330 73 -378 77 l-35 3 -3 80 c-2 44 1 161 8 260 16 257 50 686 55
715 3 14 12 92 20 174 8 82 18 161 22 175 6 25 6 25 16 4 7 -17 21 -23 67 -28z
m3015 -26 c61 -7 144 -13 185 -14 98 -2 340 -66 689 -181 235 -79 436 -186
481 -259 11 -17 22 -58 26 -90 5 -44 13 -63 32 -79 42 -35 81 -81 112 -129 16
-25 38 -55 49 -66 12 -12 21 -28 21 -37 0 -9 5 -12 12 -8 8 5 9 0 6 -14 -4
-15 -2 -22 8 -22 20 0 17 -109 -3 -117 -8 -3 -80 26 -161 65 -160 76 -241 107
-491 189 -91 29 -203 69 -250 89 -177 74 -358 158 -431 199 -111 63 -217 115
-222 109 -9 -9 -128 127 -179 204 -28 42 -69 98 -90 123 -22 26 -39 49 -39 52
0 7 100 1 245 -14z m-207 -64 c28 -30 65 -80 82 -110 17 -30 56 -87 87 -127
l55 -73 -88 90 c-49 50 -96 104 -104 120 -8 17 -38 60 -67 96 -29 36 -53 69
-53 73 0 15 40 -16 88 -69z m1342 25 c6 -11 8 -20 6 -20 -3 0 -10 9 -16 20 -6
11 -8 20 -6 20 3 0 10 -9 16 -20z m-1350 -105 c19 -19 29 -35 24 -35 -6 0 -25
16 -44 35 -19 19 -29 35 -24 35 6 0 25 -16 44 -35z m1490 -15 c0 -5 -2 -10 -4
-10 -3 0 -8 5 -11 10 -3 6 -1 10 4 10 6 0 11 -4 11 -10z m109 -177 c22 -43 55
-102 72 -132 18 -30 28 -52 22 -48 -18 11 -193 314 -193 335 0 14 63 -85 99
-155z m271 -515 c16 -29 30 -57 30 -63 0 -11 -69 96 -70 108 0 17 11 4 40 -45z
m-4920 -642 c0 -2 -7 -7 -16 -10 -8 -3 -12 -2 -9 4 6 10 25 14 25 6z"/>
<path d="M4335 9910 l-20 -9 20 0 c11 0 27 4 35 9 13 9 13 10 0 9 -8 0 -24 -4
-35 -9z"/>
<path d="M8800 9140 c0 -11 5 -20 10 -20 6 0 10 9 10 20 0 11 -4 20 -10 20 -5
0 -10 -9 -10 -20z"/>
<path d="M8834 9116 c-3 -8 -4 -25 -2 -38 3 -17 5 -13 9 15 5 38 2 47 -7 23z"/>
<path d="M8873 9095 c0 -22 2 -30 4 -17 2 12 2 30 0 40 -3 9 -5 -1 -4 -23z"/>
<path d="M8872 8980 c0 -14 2 -19 5 -12 2 6 2 18 0 25 -3 6 -5 1 -5 -13z"/>
<path d="M8881 8874 c0 -11 3 -14 6 -6 3 7 2 16 -1 19 -3 4 -6 -2 -5 -13z"/>
<path d="M5310 7993 c0 -27 6 -55 13 -62 10 -11 8 -11 -10 -2 -12 6 -25 16
-28 21 -3 6 -11 10 -17 10 -19 0 34 -51 74 -71 45 -23 88 -26 45 -3 -15 8 -25
19 -22 25 4 5 -1 12 -10 15 -10 4 -13 9 -6 13 7 5 6 16 -4 35 -8 16 -15 34
-15 42 0 7 -4 16 -10 19 -6 4 -10 -13 -10 -42z"/>
<path d="M5420 7820 c0 -43 -3 -52 -22 -60 -23 -9 -23 -9 -2 -9 12 -1 31 7 43
17 18 15 20 22 11 51 -5 19 -7 38 -4 42 3 5 -2 9 -10 9 -12 0 -16 -11 -16 -50z"/>
<path d="M5367 7809 c-9 -6 -17 -17 -17 -24 0 -23 28 -18 35 6 9 26 4 30 -18
18z"/>
<path d="M8516 8215 c-4 -11 1 -15 19 -15 16 0 25 6 25 15 0 8 -9 15 -19 15
-10 0 -21 -7 -25 -15z"/>
<path d="M5658 7133 c7 -3 16 -2 19 1 4 3 -2 6 -13 5 -11 0 -14 -3 -6 -6z"/>
<path d="M5608 7123 c6 -2 18 -2 25 0 6 3 1 5 -13 5 -14 0 -19 -2 -12 -5z"/>
<path d="M5561 7104 c0 -11 3 -14 6 -6 3 7 2 16 -1 19 -3 4 -6 -2 -5 -13z"/>
<path d="M5341 7024 c-32 -40 -28 -87 11 -119 50 -42 108 -17 123 52 6 28 2
38 -23 63 -39 39 -82 40 -111 4z m49 -44 c0 -11 -7 -20 -15 -20 -13 0 -14 4
-5 20 6 11 13 20 15 20 3 0 5 -9 5 -20z"/>
<path d="M4134 6910 c-24 -9 -64 -57 -64 -74 1 -6 11 1 23 16 12 15 40 36 62
47 40 20 23 29 -21 11z"/>
<path d="M5349 6681 c-50 -50 -33 -121 34 -144 50 -18 113 64 87 113 -11 20
-66 60 -83 60 -5 0 -22 -13 -38 -29z m28 -43 c-3 -8 -6 -5 -6 6 -1 11 2 17 5
13 3 -3 4 -12 1 -19z"/>
<path d="M3936 6683 c-6 -14 -5 -15 5 -6 7 7 10 15 7 18 -3 3 -9 -2 -12 -12z"/>
<path d="M3654 6618 l-19 -23 23 19 c12 11 22 21 22 23 0 8 -8 2 -26 -19z"/>
<path d="M3744 6605 c-10 -8 -14 -15 -8 -15 6 0 17 7 24 15 16 19 9 19 -16 0z"/>
<path d="M3676 6593 c-6 -14 -5 -15 5 -6 7 7 10 15 7 18 -3 3 -9 -2 -12 -12z"/>
<path d="M5545 6135 c0 -214 1 -301 2 -192 2 109 2 285 0 390 -1 106 -2 17 -2
-198z"/>
<path d="M5352 6383 c-18 -7 -42 -57 -42 -87 0 -36 46 -86 79 -86 58 0 102 90
65 132 -16 17 -76 50 -86 47 -2 0 -9 -3 -16 -6z"/>
<path d="M5328 5990 c-35 -36 -33 -71 8 -107 33 -30 65 -29 97 3 36 36 41 58
21 89 -34 52 -83 57 -126 15z m62 -49 c0 -12 -20 -25 -27 -18 -7 7 6 27 18 27
5 0 9 -4 9 -9z"/>
<path d="M5512 5965 c0 -16 2 -22 5 -12 2 9 2 23 0 30 -3 6 -5 -1 -5 -18z"/>
<path d="M5752 5670 c0 -14 2 -19 5 -12 2 6 2 18 0 25 -3 6 -5 1 -5 -13z"/>
<path d="M8882 5610 c0 -19 2 -27 5 -17 2 9 2 25 0 35 -3 9 -5 1 -5 -18z"/>
<path d="M8840 5500 c0 -13 -7 -20 -20 -20 -13 0 -20 -7 -20 -20 0 -13 7 -20
20 -20 11 0 20 -4 20 -10 0 -5 9 -10 20 -10 17 0 20 7 20 50 0 43 -3 50 -20
50 -13 0 -20 -7 -20 -20z"/>
<path d="M8800 5380 c0 -17 7 -20 45 -20 38 0 45 3 45 20 0 17 -7 20 -45 20
-38 0 -45 -3 -45 -20z"/>
<path d="M8883 5245 c0 -22 2 -30 4 -17 2 12 2 30 0 40 -3 9 -5 -1 -4 -23z"/>
<path d="M8881 5164 c0 -11 3 -14 6 -6 3 7 2 16 -1 19 -3 4 -6 -2 -5 -13z"/>
<path d="M8840 4605 c-19 -14 -30 -25 -25 -25 6 0 24 11 40 25 39 31 30 31
-15 0z"/>
<path d="M2850 6625 c-14 -8 -20 -14 -14 -15 5 0 19 7 30 15 24 18 16 19 -16
0z"/>
<path d="M8341 6374 c0 -11 3 -14 6 -6 3 7 2 16 -1 19 -3 4 -6 -2 -5 -13z"/>
<path d="M7502 5330 c0 -19 2 -27 5 -17 2 9 2 25 0 35 -3 9 -5 1 -5 -18z"/>
<path d="M7512 5240 c0 -19 4 -46 8 -60 7 -21 8 -19 8 15 0 22 -3 49 -8 60 -7
16 -9 13 -8 -15z"/>
<path d="M2167 5909 c-45 -11 -101 -38 -93 -46 3 -3 11 -1 18 4 7 6 46 19 86
28 39 10 72 19 72 21 0 6 -42 3 -83 -7z"/>
<path d="M2698 5323 c6 -2 18 -2 25 0 6 3 1 5 -13 5 -14 0 -19 -2 -12 -5z"/>
<path d="M5163 5223 c9 -2 23 -2 30 0 6 3 -1 5 -18 5 -16 0 -22 -2 -12 -5z"/>
<path d="M7546 3485 c8 -37 14 -45 14 -19 0 10 -5 26 -10 34 -8 11 -9 7 -4
-15z"/>
<path d="M6480 3501 c0 -5 9 -7 20 -4 11 3 20 7 20 9 0 2 -9 4 -20 4 -11 0
-20 -4 -20 -9z"/>
<path d="M6288 3473 c6 -2 18 -2 25 0 6 3 1 5 -13 5 -14 0 -19 -2 -12 -5z"/>
<path d="M6388 3473 c6 -2 18 -2 25 0 6 3 1 5 -13 5 -14 0 -19 -2 -12 -5z"/>
<path d="M3691 2174 c0 -11 3 -14 6 -6 3 7 2 16 -1 19 -3 4 -6 -2 -5 -13z"/>
<path d="M3681 2124 c0 -11 3 -14 6 -6 3 7 2 16 -1 19 -3 4 -6 -2 -5 -13z"/>
<path d="M3661 2014 c0 -11 3 -14 6 -6 3 7 2 16 -1 19 -3 4 -6 -2 -5 -13z"/>
<path d="M3651 1974 c0 -11 3 -14 6 -6 3 7 2 16 -1 19 -3 4 -6 -2 -5 -13z"/>
<path d="M3622 1878 c-13 -40 -26 -79 -29 -87 -3 -8 -1 -11 6 -7 13 8 55 140
49 157 -2 6 -14 -22 -26 -63z"/>
<path d="M3200 1921 c9 -5 53 -19 98 -30 45 -12 126 -37 179 -56 94 -35 132
-40 76 -12 -37 19 -135 50 -255 82 -102 27 -122 30 -98 16z"/>
<path d="M3333 1635 c0 -22 2 -30 4 -17 2 12 2 30 0 40 -3 9 -5 -1 -4 -23z"/>
<path d="M3381 1607 c-5 -12 -17 -74 -26 -137 -22 -143 -34 -178 -27 -80 7
109 -6 81 -17 -36 -17 -179 -23 -299 -15 -291 5 5 12 45 15 90 3 45 6 -70 7
-255 1 -220 -1 -338 -8 -338 -16 0 -12 -36 5 -50 9 -7 17 -11 19 -9 2 2 8 126
14 274 9 219 16 292 35 385 14 63 28 172 32 241 10 177 -7 278 -34 206z m-54
-349 c-3 -8 -6 -5 -6 6 -1 11 2 17 5 13 3 -3 4 -12 1 -19z"/>
<path d="M3673 1265 c0 -27 2 -38 4 -22 2 15 2 37 0 50 -2 12 -4 0 -4 -28z"/>
<path d="M3663 1145 c0 -27 2 -38 4 -22 2 15 2 37 0 50 -2 12 -4 0 -4 -28z"/>
<path d="M3648 750 c-4 -162 -11 -315 -15 -340 -8 -44 -9 -45 -43 -42 -19 2
-78 12 -130 23 -52 11 -115 22 -140 24 -25 3 -81 13 -124 25 -85 21 -110 25
-86 11 27 -16 173 -50 262 -61 49 -6 131 -22 183 -35 108 -28 126 -30 101 -12
-16 11 -16 22 -6 122 6 61 10 216 8 345 l-3 235 -7 -295z"/>
<path d="M3370 500 c0 -5 10 -10 23 -10 18 0 19 2 7 10 -19 13 -30 13 -30 0z"/>
<path d="M4451 10195 c-7 -25 -17 -45 -21 -45 -4 0 -10 -10 -13 -22 -2 -13 -8
-32 -13 -43 -18 -44 26 7 50 59 34 74 40 96 24 96 -8 0 -20 -20 -27 -45z"/>
<path d="M4607 10179 c-48 -33 -87 -62 -87 -65 0 -5 47 23 70 42 8 7 42 29 74
48 33 20 53 36 45 36 -9 0 -55 -27 -102 -61z"/>
<path d="M7783 10233 c-26 -3 -33 -9 -33 -26 -1 -21 -2 -21 -14 -4 -13 16 -14
16 -29 -5 -15 -20 -16 -21 -11 -3 5 18 4 18 -6 3 -6 -10 -18 -18 -26 -18 -8 0
-13 -4 -9 -10 3 -5 12 -7 20 -3 20 7 19 -12 -2 -45 -15 -23 -13 -22 15 7 34
35 40 47 20 35 -10 -5 -10 -3 0 7 11 12 14 12 22 -1 5 -8 5 -21 -2 -33 -5 -10
-7 -21 -4 -25 3 -3 6 0 6 6 0 7 5 12 10 12 6 0 10 -7 10 -15 0 -9 -9 -15 -22
-15 -19 0 -20 -2 -8 -10 13 -9 13 -11 0 -20 -9 -6 -10 -10 -3 -10 6 0 21 14
33 30 23 33 40 39 40 15 0 -8 5 -15 10 -15 6 0 10 -5 10 -11 0 -6 -9 -9 -19
-6 -17 4 -18 2 -9 -19 6 -13 16 -24 21 -24 5 0 4 6 -2 14 -10 12 -7 15 18 14
17 -1 28 -4 26 -8 -2 -4 1 -15 8 -24 10 -14 12 -9 8 31 -3 41 -5 45 -16 30
-12 -17 -13 -17 -19 0 -4 10 -4 14 0 11 3 -4 14 0 23 9 15 16 16 14 19 -21 3
-33 5 -36 19 -24 14 11 16 10 11 -10 -4 -12 -2 -20 3 -16 5 3 9 12 9 20 0 8 4
14 8 14 14 0 43 58 31 62 -8 3 -8 8 2 18 8 8 15 25 16 37 2 17 -4 23 -25 26
-16 2 -8 5 21 6 26 0 47 -3 47 -9 0 -5 5 -10 10 -10 6 0 10 4 10 10 0 13 -35
21 -106 23 -48 2 -58 -1 -56 -13 2 -11 -1 -11 -11 3 -8 9 -20 16 -28 15 -8 0
-29 -3 -46 -5z m-3 -22 c0 -6 -4 -13 -10 -16 -5 -3 -10 1 -10 9 0 9 5 16 10
16 6 0 10 -4 10 -9z m50 -33 c0 -5 -4 -8 -10 -8 -5 0 -10 5 -10 10 0 6 -4 10
-10 10 -5 0 -10 -7 -10 -15 0 -8 5 -15 10 -15 6 0 10 -7 10 -15 0 -8 -4 -15
-10 -15 -5 0 -10 5 -10 11 0 6 -9 8 -20 4 -11 -4 -20 -2 -20 4 0 6 6 11 14 11
8 0 17 11 20 25 6 22 9 23 26 13 11 -7 20 -16 20 -20z m-3 -50 c-3 -8 -6 -5
-6 6 -1 11 2 17 5 13 3 -3 4 -12 1 -19z m82 -51 c1 -5 -3 -5 -9 -2 -5 3 -10
16 -9 28 0 21 1 21 9 2 5 -11 9 -24 9 -28z m23 28 c0 -5 -5 -11 -11 -13 -6 -2
-11 4 -11 13 0 9 5 15 11 13 6 -2 11 -8 11 -13z"/>
<path d="M7559 10228 c-10 -32 11 -92 25 -69 4 5 1 13 -4 16 -7 5 -5 12 7 21
17 13 17 13 0 14 -10 0 -15 5 -12 10 3 6 1 10 -4 10 -6 0 -11 -1 -12 -2z"/>
<path d="M7527 10196 c-4 -10 -1 -13 9 -9 7 3 14 9 14 14 0 14 -17 10 -23 -5z"/>
<path d="M7618 10185 c2 -14 8 -25 12 -25 4 0 5 11 2 25 -2 14 -8 25 -12 25
-4 0 -5 -11 -2 -25z"/>
<path d="M7650 10200 c0 -5 5 -10 10 -10 6 0 10 5 10 10 0 6 -4 10 -10 10 -5
0 -10 -4 -10 -10z"/>
<path d="M7575 10129 c-4 -6 -5 -12 -2 -15 2 -3 7 2 10 11 7 17 1 20 -8 4z"/>
<path d="M7677 10071 c-4 -15 -10 -20 -18 -15 -8 5 -10 3 -4 -5 10 -17 39 11
33 30 -3 8 -7 4 -11 -10z"/>
<path d="M4406 10035 c-11 -8 -16 -15 -10 -15 5 0 18 7 28 15 11 8 16 15 10
15 -5 0 -18 -7 -28 -15z"/>
<path d="M7730 10016 c0 -2 7 -7 16 -10 8 -3 12 -2 9 4 -6 10 -25 14 -25 6z"/>
<path d="M7827 10003 c-4 -3 -7 -11 -7 -17 0 -6 5 -5 12 2 6 6 9 14 7 17 -3 3
-9 2 -12 -2z"/>
<path d="M8440 9750 c0 -5 9 -10 20 -10 11 0 20 5 20 10 0 6 -9 10 -20 10 -11
0 -20 -4 -20 -10z"/>
<path d="M8520 9740 c0 -11 7 -20 15 -20 8 0 15 -9 15 -20 0 -11 5 -20 11 -20
8 0 9 11 5 31 -3 17 -6 35 -6 40 0 5 -9 9 -20 9 -13 0 -20 -7 -20 -20z"/>
<path d="M4058 9743 c7 -3 16 -2 19 1 4 3 -2 6 -13 5 -11 0 -14 -3 -6 -6z"/>
<path d="M742 9601 c-57 -15 -108 -56 -136 -112 -43 -87 -31 -172 36 -245 130
-141 358 -43 358 154 0 51 -5 67 -32 108 -52 77 -144 115 -226 95z m137 -31
c76 -38 117 -114 109 -201 -5 -53 -36 -101 -93 -145 -103 -79 -265 -8 -295
128 -34 161 134 293 279 218z"/>
<path d="M6300 9585 c0 -5 5 -17 10 -25 5 -8 10 -10 10 -5 0 6 -5 17 -10 25
-5 8 -10 11 -10 5z"/>
<path d="M8551 9363 c0 -50 3 -83 9 -83 11 0 12 43 0 115 -7 47 -7 45 -9 -32z"/>
<path d="M9514 9295 c0 -71 1 -99 3 -62 2 37 2 96 0 130 -2 34 -3 4 -3 -68z"/>
<path d="M8343 9375 c0 -22 2 -30 4 -17 2 12 2 30 0 40 -3 9 -5 -1 -4 -23z"/>
<path d="M8583 9280 c0 -47 2 -66 4 -42 2 23 2 61 0 85 -2 23 -4 4 -4 -43z"/>
<path d="M9542 9315 c0 -16 2 -22 5 -12 2 9 2 23 0 30 -3 6 -5 -1 -5 -18z"/>
<path d="M8341 9314 c0 -11 3 -14 6 -6 3 7 2 16 -1 19 -3 4 -6 -2 -5 -13z"/>
<path d="M9473 9255 c0 -44 2 -61 4 -37 2 23 2 59 0 80 -2 20 -4 1 -4 -43z"/>
<path d="M9404 9115 c0 -99 2 -138 3 -87 2 51 2 132 0 180 -1 48 -3 6 -3 -93z"/>
<path d="M8551 9198 c1 -37 2 -39 9 -18 12 36 12 60 0 60 -5 0 -10 -19 -9 -42z"/>
<path d="M9383 9195 c0 -22 2 -30 4 -17 2 12 2 30 0 40 -3 9 -5 -1 -4 -23z"/>
<path d="M9353 9120 c0 -36 2 -50 4 -32 2 17 2 47 0 65 -2 17 -4 3 -4 -33z"/>
<path d="M9533 9095 c0 -38 2 -53 4 -32 2 20 2 52 0 70 -2 17 -4 1 -4 -38z"/>
<path d="M9502 9110 c0 -19 2 -27 5 -17 2 9 2 25 0 35 -3 9 -5 1 -5 -18z"/>
<path d="M9451 9114 c0 -11 3 -14 6 -6 3 7 2 16 -1 19 -3 4 -6 -2 -5 -13z"/>
<path d="M9472 9100 c0 -14 2 -19 5 -12 2 6 2 18 0 25 -3 6 -5 1 -5 -13z"/>
<path d="M3673 9063 c-13 -2 -23 -8 -23 -13 0 -5 14 -5 31 0 55 16 50 24 -8
13z"/>
<path d="M3694 9030 c-59 -29 -134 -97 -134 -122 0 -6 16 7 36 30 19 23 64 58
100 78 35 20 64 38 64 40 0 6 0 6 -66 -26z"/>
<path d="M9291 8984 c0 -11 3 -14 6 -6 3 7 2 16 -1 19 -3 4 -6 -2 -5 -13z"/>
<path d="M9533 8925 c0 -22 2 -30 4 -17 2 12 2 30 0 40 -3 9 -5 -1 -4 -23z"/>
<path d="M9241 8924 c0 -11 3 -14 6 -6 3 7 2 16 -1 19 -3 4 -6 -2 -5 -13z"/>
<path d="M9472 8920 c0 -14 2 -19 5 -12 2 6 2 18 0 25 -3 6 -5 1 -5 -13z"/>
<path d="M9402 8900 c0 -19 2 -27 5 -17 2 9 2 25 0 35 -3 9 -5 1 -5 -18z"/>
<path d="M9411 8724 c0 -11 3 -14 6 -6 3 7 2 16 -1 19 -3 4 -6 -2 -5 -13z"/>
<path d="M9443 8680 c0 -36 2 -50 4 -32 2 17 2 47 0 65 -2 17 -4 3 -4 -33z"/>
<path d="M9381 8714 c0 -11 3 -14 6 -6 3 7 2 16 -1 19 -3 4 -6 -2 -5 -13z"/>
<path d="M9352 8690 c0 -19 2 -27 5 -17 2 9 2 25 0 35 -3 9 -5 1 -5 -18z"/>
<path d="M9474 8595 c0 -66 1 -92 3 -57 2 34 2 88 0 120 -2 31 -3 3 -3 -63z"/>
<path d="M9402 8650 c0 -14 2 -19 5 -12 2 6 2 18 0 25 -3 6 -5 1 -5 -13z"/>
<path d="M8343 8615 c0 -27 2 -38 4 -22 2 15 2 37 0 50 -2 12 -4 0 -4 -28z"/>
<path d="M4015 8631 c-81 -49 -184 -103 -190 -100 -3 2 -11 -4 -16 -13 -6 -10
-18 -18 -27 -18 -20 0 -147 -98 -170 -132 -9 -13 10 0 41 28 32 28 95 70 140
92 111 56 218 119 242 143 24 24 19 24 -20 0z"/>
<path d="M9423 8595 c0 -27 2 -38 4 -22 2 15 2 37 0 50 -2 12 -4 0 -4 -28z"/>
<path d="M3796 8602 c21 -37 42 -58 49 -50 3 3 -11 22 -32 44 l-37 39 20 -33z"/>
<path d="M9503 8545 c0 -38 2 -53 4 -32 2 20 2 52 0 70 -2 17 -4 1 -4 -38z"/>
<path d="M9533 8540 c0 -36 2 -50 4 -32 2 17 2 47 0 65 -2 17 -4 3 -4 -33z"/>
<path d="M9353 8535 c0 -22 2 -30 4 -17 2 12 2 30 0 40 -3 9 -5 -1 -4 -23z"/>
<path d="M9382 8540 c0 -14 2 -19 5 -12 2 6 2 18 0 25 -3 6 -5 1 -5 -13z"/>
<path d="M9443 8525 c0 -22 2 -30 4 -17 2 12 2 30 0 40 -3 9 -5 -1 -4 -23z"/>
<path d="M9372 8490 c0 -14 2 -19 5 -12 2 6 2 18 0 25 -3 6 -5 1 -5 -13z"/>
<path d="M9402 8490 c0 -14 2 -19 5 -12 2 6 2 18 0 25 -3 6 -5 1 -5 -13z"/>
<path d="M3835 8444 c-98 -49 -159 -102 -194 -167 l-23 -42 34 38 c18 21 42
43 54 50 47 27 194 129 199 137 4 6 11 10 16 10 6 0 7 -6 3 -12 -5 -9 -3 -9 9
1 16 12 15 32 -1 31 -4 -1 -47 -21 -97 -46z m-65 -47 c0 -2 -15 -16 -32 -33
l-33 -29 29 33 c28 30 36 37 36 29z"/>
<path d="M9422 8450 c0 -19 2 -27 5 -17 2 9 2 25 0 35 -3 9 -5 1 -5 -18z"/>
<path d="M9446 8428 c-4 -24 -9 -54 -12 -68 -4 -18 -3 -21 4 -10 11 16 27 120
19 120 -2 0 -7 -19 -11 -42z"/>
<path d="M9362 8440 c0 -14 2 -19 5 -12 2 6 2 18 0 25 -3 6 -5 1 -5 -13z"/>
<path d="M9392 8440 c0 -14 2 -19 5 -12 2 6 2 18 0 25 -3 6 -5 1 -5 -13z"/>
<path d="M9482 8400 c0 -14 2 -19 5 -12 2 6 2 18 0 25 -3 6 -5 1 -5 -13z"/>
<path d="M9352 8380 c0 -19 2 -27 5 -17 2 9 2 25 0 35 -3 9 -5 1 -5 -18z"/>
<path d="M9375 8370 c-4 -23 -5 -44 -2 -46 3 -3 8 13 12 36 4 23 5 44 2 46 -3
3 -8 -13 -12 -36z"/>
<path d="M9406 8373 c-16 -90 -16 -99 -7 -78 10 24 24 115 18 115 -3 0 -8 -17
-11 -37z"/>
<path d="M9422 8300 c0 -19 2 -27 5 -17 2 9 2 25 0 35 -3 9 -5 1 -5 -18z"/>
<path d="M9292 8295 c0 -16 2 -22 5 -12 2 9 2 23 0 30 -3 6 -5 -1 -5 -18z"/>
<path d="M9312 8300 c0 -14 2 -19 5 -12 2 6 2 18 0 25 -3 6 -5 1 -5 -13z"/>
<path d="M9452 8290 c0 -19 2 -27 5 -17 2 9 2 25 0 35 -3 9 -5 1 -5 -18z"/>
<path d="M9272 8290 c0 -14 2 -19 5 -12 2 6 2 18 0 25 -3 6 -5 1 -5 -13z"/>
<path d="M9362 8290 c0 -14 2 -19 5 -12 2 6 2 18 0 25 -3 6 -5 1 -5 -13z"/>
<path d="M3660 8248 c-15 -21 -17 -28 -6 -19 16 13 41 51 33 51 -2 0 -14 -15
-27 -32z"/>
<path d="M3590 8240 c-6 -11 -8 -20 -6 -20 3 0 10 9 16 20 6 11 8 20 6 20 -3
0 -10 -9 -16 -20z"/>
<path d="M9383 8225 c0 -22 2 -30 4 -17 2 12 2 30 0 40 -3 9 -5 -1 -4 -23z"/>
<path d="M9412 8235 c0 -16 2 -22 5 -12 2 9 2 23 0 30 -3 6 -5 -1 -5 -18z"/>
<path d="M9482 8240 c0 -14 2 -19 5 -12 2 6 2 18 0 25 -3 6 -5 1 -5 -13z"/>
<path d="M9531 8224 c0 -11 3 -14 6 -6 3 7 2 16 -1 19 -3 4 -6 -2 -5 -13z"/>
<path d="M9442 8200 c0 -14 2 -19 5 -12 2 6 2 18 0 25 -3 6 -5 1 -5 -13z"/>
<path d="M3612 8190 c-6 -11 -11 -41 -11 -67 l1 -48 8 50 c4 28 11 58 15 68
10 23 3 22 -13 -3z"/>
<path d="M9345 8160 c-4 -28 -5 -53 -2 -56 2 -3 7 19 11 47 4 28 5 53 3 56 -3
2 -8 -19 -12 -47z"/>
<path d="M9161 8184 c0 -11 3 -14 6 -6 3 7 2 16 -1 19 -3 4 -6 -2 -5 -13z"/>
<path d="M9403 8150 c0 -30 2 -43 4 -27 2 15 2 39 0 55 -2 15 -4 2 -4 -28z"/>
<path d="M9201 8174 c0 -11 3 -14 6 -6 3 7 2 16 -1 19 -3 4 -6 -2 -5 -13z"/>
<path d="M9222 8170 c0 -14 2 -19 5 -12 2 6 2 18 0 25 -3 6 -5 1 -5 -13z"/>
<path d="M9242 8165 c0 -16 2 -22 5 -12 2 9 2 23 0 30 -3 6 -5 -1 -5 -18z"/>
<path d="M9262 8170 c0 -14 2 -19 5 -12 2 6 2 18 0 25 -3 6 -5 1 -5 -13z"/>
<path d="M3554 8165 c-3 -8 -4 -20 -2 -27 3 -7 7 -1 10 15 6 29 1 36 -8 12z"/>
<path d="M9373 8140 c0 -25 2 -35 4 -22 2 12 2 32 0 45 -2 12 -4 2 -4 -23z"/>
<path d="M9282 8140 c0 -19 2 -27 5 -17 2 9 2 25 0 35 -3 9 -5 1 -5 -18z"/>
<path d="M9436 8154 c-8 -22 -8 -72 2 -77 4 -3 7 17 8 44 1 53 0 58 -10 33z"/>
<path d="M9172 8130 c0 -14 2 -19 5 -12 2 6 2 18 0 25 -3 6 -5 1 -5 -13z"/>
<path d="M9261 8124 c0 -11 3 -14 6 -6 3 7 2 16 -1 19 -3 4 -6 -2 -5 -13z"/>
<path d="M9462 8110 c0 -19 2 -27 5 -17 2 9 2 25 0 35 -3 9 -5 1 -5 -18z"/>
<path d="M9222 8105 c0 -16 2 -22 5 -12 2 9 2 23 0 30 -3 6 -5 -1 -5 -18z"/>
<path d="M9202 8095 c0 -16 2 -22 5 -12 2 9 2 23 0 30 -3 6 -5 -1 -5 -18z"/>
<path d="M9362 8050 c0 -19 2 -27 5 -17 2 9 2 25 0 35 -3 9 -5 1 -5 -18z"/>
<path d="M9413 8040 c0 -25 2 -35 4 -22 2 12 2 32 0 45 -2 12 -4 2 -4 -23z"/>
<path d="M9382 8040 c0 -19 2 -27 5 -17 2 9 2 25 0 35 -3 9 -5 1 -5 -18z"/>
<path d="M9121 8044 c0 -11 3 -14 6 -6 3 7 2 16 -1 19 -3 4 -6 -2 -5 -13z"/>
<path d="M9142 8035 c0 -16 2 -22 5 -12 2 9 2 23 0 30 -3 6 -5 -1 -5 -18z"/>
<path d="M9441 8044 c0 -11 3 -14 6 -6 3 7 2 16 -1 19 -3 4 -6 -2 -5 -13z"/>
<path d="M9052 8030 c0 -14 2 -19 5 -12 2 6 2 18 0 25 -3 6 -5 1 -5 -13z"/>
<path d="M9162 8030 c0 -14 2 -19 5 -12 2 6 2 18 0 25 -3 6 -5 1 -5 -13z"/>
<path d="M3890 8034 c0 -5 7 -19 15 -30 8 -10 15 -14 15 -8 0 5 -7 19 -15 30
-8 10 -15 14 -15 8z"/>
<path d="M9071 8024 c0 -11 3 -14 6 -6 3 7 2 16 -1 19 -3 4 -6 -2 -5 -13z"/>
<path d="M9476 7975 c-4 -38 -12 -75 -17 -81 -5 -6 -11 -33 -14 -60 -2 -27 -2
-40 1 -29 3 11 14 50 25 87 11 37 19 86 17 110 -3 39 -4 36 -12 -27z"/>
<path d="M9322 8005 c0 -16 2 -22 5 -12 2 9 2 23 0 30 -3 6 -5 -1 -5 -18z"/>
<path d="M9031 8004 c0 -11 3 -14 6 -6 3 7 2 16 -1 19 -3 4 -6 -2 -5 -13z"/>
<path d="M9212 8000 c0 -14 2 -19 5 -12 2 6 2 18 0 25 -3 6 -5 1 -5 -13z"/>
<path d="M9342 8000 c0 -14 2 -19 5 -12 2 6 2 18 0 25 -3 6 -5 1 -5 -13z"/>
<path d="M9192 7990 c0 -14 2 -19 5 -12 2 6 2 18 0 25 -3 6 -5 1 -5 -13z"/>
<path d="M9101 7984 c0 -11 3 -14 6 -6 3 7 2 16 -1 19 -3 4 -6 -2 -5 -13z"/>
<path d="M9368 7930 c-5 -41 -10 -93 -13 -115 -2 -22 2 -8 11 30 8 39 13 90
12 115 -3 38 -4 33 -10 -30z"/>
<path d="M9171 7974 c0 -11 3 -14 6 -6 3 7 2 16 -1 19 -3 4 -6 -2 -5 -13z"/>
<path d="M9445 7964 c-4 -16 -10 -42 -15 -59 -19 -68 -20 -85 -9 -85 7 0 10 2
7 5 -3 3 3 40 13 82 10 42 17 79 14 81 -2 2 -7 -9 -10 -24z"/>
<path d="M9421 7964 c0 -11 3 -14 6 -6 3 7 2 16 -1 19 -3 4 -6 -2 -5 -13z"/>
<path d="M8992 7945 c0 -16 2 -22 5 -12 2 9 2 23 0 30 -3 6 -5 -1 -5 -18z"/>
<path d="M9010 7949 c0 -13 5 -31 10 -39 7 -11 8 -5 4 20 -8 43 -14 51 -14 19z"/>
<path d="M9346 7955 c-3 -8 -1 -15 4 -15 6 0 10 7 10 15 0 8 -2 15 -4 15 -2 0
-6 -7 -10 -15z"/>
<path d="M9390 7960 c0 -5 5 -10 10 -10 6 0 10 5 10 10 0 6 -4 10 -10 10 -5 0
-10 -4 -10 -10z"/>
<path d="M9031 7944 c0 -11 3 -14 6 -6 3 7 2 16 -1 19 -3 4 -6 -2 -5 -13z"/>
<path d="M9202 7930 c0 -19 2 -27 5 -17 2 9 2 25 0 35 -3 9 -5 1 -5 -18z"/>
<path d="M9222 7935 c0 -16 2 -22 5 -12 2 9 2 23 0 30 -3 6 -5 -1 -5 -18z"/>
<path d="M9122 7930 c0 -14 2 -19 5 -12 2 6 2 18 0 25 -3 6 -5 1 -5 -13z"/>
<path d="M9142 7930 c0 -14 2 -19 5 -12 2 6 2 18 0 25 -3 6 -5 1 -5 -13z"/>
<path d="M9183 7905 c0 -27 2 -38 4 -22 2 15 2 37 0 50 -2 12 -4 0 -4 -28z"/>
<path d="M9163 7890 c0 -30 2 -43 4 -27 2 15 2 39 0 55 -2 15 -4 2 -4 -28z"/>
<path d="M9281 7924 c0 -11 3 -14 6 -6 3 7 2 16 -1 19 -3 4 -6 -2 -5 -13z"/>
<path d="M9390 7876 c-7 -36 -10 -71 -8 -78 3 -7 11 20 18 60 6 40 10 75 7 78
-2 3 -10 -24 -17 -60z"/>
<path d="M9305 7920 c-3 -5 -1 -10 4 -10 6 0 11 5 11 10 0 6 -2 10 -4 10 -3 0
-8 -4 -11 -10z"/>
<path d="M9123 7860 c0 -25 2 -35 4 -22 2 12 2 32 0 45 -2 12 -4 2 -4 -23z"/>
<path d="M9142 7870 c0 -19 2 -27 5 -17 2 9 2 25 0 35 -3 9 -5 1 -5 -18z"/>
<path d="M9103 7850 c0 -25 2 -35 4 -22 2 12 2 32 0 45 -2 12 -4 2 -4 -23z"/>
<path d="M9271 7874 c0 -11 3 -14 6 -6 3 7 2 16 -1 19 -3 4 -6 -2 -5 -13z"/>
<path d="M9486 7881 c-4 -6 -9 -34 -11 -63 l-5 -53 14 60 c14 59 14 77 2 56z"/>
<path d="M8971 7864 c0 -11 3 -14 6 -6 3 7 2 16 -1 19 -3 4 -6 -2 -5 -13z"/>
<path d="M8993 7845 c0 -22 2 -30 4 -17 2 12 2 30 0 40 -3 9 -5 -1 -4 -23z"/>
<path d="M9032 7860 c0 -14 2 -19 5 -12 2 6 2 18 0 25 -3 6 -5 1 -5 -13z"/>
<path d="M9052 7860 c0 -14 2 -19 5 -12 2 6 2 18 0 25 -3 6 -5 1 -5 -13z"/>
<path d="M9331 7854 c0 -11 3 -14 6 -6 3 7 2 16 -1 19 -3 4 -6 -2 -5 -13z"/>
<path d="M9232 7815 c0 -16 2 -22 5 -12 2 9 2 23 0 30 -3 6 -5 -1 -5 -18z"/>
<path d="M9061 7814 c0 -11 3 -14 6 -6 3 7 2 16 -1 19 -3 4 -6 -2 -5 -13z"/>
<path d="M9081 7814 c0 -11 3 -14 6 -6 3 7 2 16 -1 19 -3 4 -6 -2 -5 -13z"/>
<path d="M9192 7810 c0 -14 2 -19 5 -12 2 6 2 18 0 25 -3 6 -5 1 -5 -13z"/>
<path d="M9212 7810 c0 -14 2 -19 5 -12 2 6 2 18 0 25 -3 6 -5 1 -5 -13z"/>
<path d="M9282 7800 c0 -19 2 -27 5 -17 2 9 2 25 0 35 -3 9 -5 1 -5 -18z"/>
<path d="M9122 7790 c0 -14 2 -19 5 -12 2 6 2 18 0 25 -3 6 -5 1 -5 -13z"/>
<path d="M9412 7752 c-1 -31 -7 -97 -12 -146 -6 -49 -8 -91 -5 -94 3 -3 5 6 6
19 0 22 1 23 9 4 7 -15 8 -10 4 16 -3 20 -1 79 6 132 6 55 8 103 3 112 -6 10
-10 -5 -11 -43z"/>
<path d="M1100 7790 c-230 -27 -402 -109 -544 -260 -152 -161 -230 -334 -256
-563 -23 -198 45 -454 163 -620 56 -78 189 -206 268 -257 208 -134 521 -177
749 -102 311 103 540 353 615 672 83 355 -5 638 -280 903 -178 171 -451 258
-715 227z m335 -39 c44 -11 127 -44 184 -72 86 -43 119 -66 194 -138 49 -47
109 -114 134 -148 56 -78 118 -222 145 -333 51 -211 -19 -532 -157 -725 -136
-191 -372 -335 -600 -366 -157 -20 -352 14 -509 90 -146 71 -319 231 -396 366
-36 64 -84 202 -104 299 -31 150 -9 359 54 509 100 238 302 431 522 498 171
53 378 60 533 20z"/>
<path d="M1048 7610 c-48 -10 -111 -26 -140 -36 -114 -38 -237 -131 -312 -237
-96 -137 -160 -401 -135 -556 13 -85 81 -252 136 -333 85 -129 233 -240 389
-294 101 -35 269 -44 384 -20 231 48 454 245 531 470 79 229 62 436 -54 661
-64 124 -212 257 -347 311 -135 55 -298 67 -452 34z m289 -10 c100 -13 173
-41 265 -101 149 -98 242 -226 299 -409 34 -107 34 -319 1 -433 -62 -215 -176
-350 -377 -449 -289 -141 -601 -81 -844 162 -92 92 -191 313 -206 461 -13 124
55 376 131 486 46 67 140 155 207 193 57 33 194 78 272 90 72 11 169 11 252 0z"/>
<path d="M1268 7523 c7 -3 16 -2 19 1 4 3 -2 6 -13 5 -11 0 -14 -3 -6 -6z"/>
<path d="M883 7450 c-95 -48 -130 -75 -183 -136 -14 -16 2 -4 36 27 55 52 158
113 244 145 19 7 28 13 18 13 -9 1 -60 -21 -115 -49z"/>
<path d="M1470 7475 c0 -2 17 -13 38 -24 22 -11 61 -36 88 -56 l49 -36 -39 36
c-22 19 -60 47 -84 60 -46 26 -52 28 -52 20z"/>
<path d="M1095 7286 c-196 -49 -317 -224 -303 -442 6 -95 49 -185 124 -264 69
-72 134 -106 234 -121 145 -22 249 10 344 105 158 159 185 376 69 553 -42 64
-78 95 -152 132 -98 50 -211 63 -316 37z m229 -21 c118 -31 204 -102 258 -214
30 -61 33 -74 33 -166 0 -97 -1 -104 -39 -180 -47 -95 -115 -166 -194 -203
-51 -24 -68 -27 -162 -26 -138 0 -201 24 -281 104 -104 103 -151 234 -130 360
27 166 120 280 266 326 55 18 179 17 249 -1z"/>
<path d="M1195 6920 c-7 -12 3 -50 13 -50 18 1 34 19 30 36 -4 21 -33 31 -43
14z"/>
<path d="M1681 6379 c-38 -34 -82 -59 -218 -122 -13 -6 -21 -12 -18 -15 10
-11 196 91 241 132 27 25 47 45 44 45 -3 0 -25 -18 -49 -40z"/>
<path d="M820 6338 c8 -8 33 -25 55 -37 34 -19 36 -20 16 -3 -34 27 -91 60
-71 40z"/>
<path d="M975 6245 c17 -8 41 -14 55 -14 15 0 5 6 -25 14 -62 17 -69 17 -30 0z"/>
<path d="M1100 6219 c45 -8 217 -12 209 -5 -2 2 -60 5 -129 8 -75 3 -107 2
-80 -3z"/>
<path d="M8992 7775 c0 -16 2 -22 5 -12 2 9 2 23 0 30 -3 6 -5 -1 -5 -18z"/>
<path d="M9013 7755 c0 -27 2 -38 4 -22 2 15 2 37 0 50 -2 12 -4 0 -4 -28z"/>
<path d="M9302 7775 c0 -16 2 -22 5 -12 2 9 2 23 0 30 -3 6 -5 -1 -5 -18z"/>
<path d="M9326 7749 c-4 -23 -5 -44 -2 -46 2 -2 7 14 11 37 4 23 5 43 2 46 -2
3 -7 -14 -11 -37z"/>
<path d="M8951 7764 c0 -11 3 -14 6 -6 3 7 2 16 -1 19 -3 4 -6 -2 -5 -13z"/>
<path d="M9447 7760 c-3 -14 -8 -70 -12 -124 -5 -91 -4 -98 11 -85 9 7 12 15
7 16 -5 2 -6 39 -1 90 9 94 7 149 -5 103z"/>
<path d="M9033 7735 c0 -22 2 -30 4 -17 2 12 2 30 0 40 -3 9 -5 -1 -4 -23z"/>
<path d="M9152 7750 c0 -14 2 -19 5 -12 2 6 2 18 0 25 -3 6 -5 1 -5 -13z"/>
<path d="M9356 7748 c-3 -13 -6 -39 -6 -58 0 -20 -4 -40 -10 -46 -5 -5 -12
-41 -15 -79 -3 -47 -1 -65 5 -55 5 8 10 41 10 72 0 31 4 58 9 60 7 3 23 128
16 128 -1 0 -5 -10 -9 -22z"/>
<path d="M9387 7749 c-14 -72 -30 -180 -33 -224 l-3 -50 10 45 c13 58 38 244
33 249 -1 2 -5 -7 -7 -20z"/>
<path d="M9477 7753 c-4 -3 -7 -13 -7 -22 1 -13 3 -13 11 2 11 19 8 33 -4 20z"/>
<path d="M9241 7734 c0 -11 3 -14 6 -6 3 7 2 16 -1 19 -3 4 -6 -2 -5 -13z"/>
<path d="M8992 7710 c0 -19 2 -27 5 -17 2 9 2 25 0 35 -3 9 -5 1 -5 -18z"/>
<path d="M9051 7714 c0 -11 3 -14 6 -6 3 7 2 16 -1 19 -3 4 -6 -2 -5 -13z"/>
<path d="M9476 7694 c-9 -24 -7 -114 3 -114 4 0 9 29 10 65 2 65 -2 78 -13 49z"/>
<path d="M9276 7685 c-3 -9 -5 -74 -4 -143 l1 -127 7 140 c3 77 5 141 4 143
-1 2 -4 -4 -8 -13z"/>
<path d="M9051 7674 c0 -11 3 -14 6 -6 3 7 2 16 -1 19 -3 4 -6 -2 -5 -13z"/>
<path d="M9218 7656 c-7 -39 -4 -55 8 -44 3 3 4 23 2 44 l-3 39 -7 -39z"/>
<path d="M9251 7674 c0 -11 3 -14 6 -6 3 7 2 16 -1 19 -3 4 -6 -2 -5 -13z"/>
<path d="M9303 7640 c0 -30 2 -43 4 -27 2 15 2 39 0 55 -2 15 -4 2 -4 -28z"/>
<path d="M9192 7640 c0 -19 2 -27 5 -17 2 9 2 25 0 35 -3 9 -5 1 -5 -18z"/>
<path d="M9891 7654 c0 -11 3 -14 6 -6 3 7 2 16 -1 19 -3 4 -6 -2 -5 -13z"/>
<path d="M9121 7634 c0 -11 3 -14 6 -6 3 7 2 16 -1 19 -3 4 -6 -2 -5 -13z"/>
<path d="M9243 7615 c0 -22 2 -30 4 -17 2 12 2 30 0 40 -3 9 -5 -1 -4 -23z"/>
<path d="M9061 7624 c0 -11 3 -14 6 -6 3 7 2 16 -1 19 -3 4 -6 -2 -5 -13z"/>
<path d="M9101 7624 c0 -11 3 -14 6 -6 3 7 2 16 -1 19 -3 4 -6 -2 -5 -13z"/>
<path d="M9893 7560 c0 -36 2 -50 4 -32 2 17 2 47 0 65 -2 17 -4 3 -4 -33z"/>
<path d="M8996 7575 c-3 -9 -5 -29 -5 -43 1 -20 3 -17 9 13 8 43 7 57 -4 30z"/>
<path d="M9132 7565 c0 -16 2 -22 5 -12 2 9 2 23 0 30 -3 6 -5 -1 -5 -18z"/>
<path d="M9041 7564 c0 -11 3 -14 6 -6 3 7 2 16 -1 19 -3 4 -6 -2 -5 -13z"/>
<path d="M9201 7564 c0 -11 3 -14 6 -6 3 7 2 16 -1 19 -3 4 -6 -2 -5 -13z"/>
<path d="M9303 7510 c0 -41 2 -58 4 -37 2 20 2 54 0 75 -2 20 -4 3 -4 -38z"/>
<path d="M9021 7524 c0 -11 3 -14 6 -6 3 7 2 16 -1 19 -3 4 -6 -2 -5 -13z"/>
<path d="M9197 7526 c-4 -10 -7 -25 -6 -34 0 -11 4 -9 10 7 5 13 8 29 6 35 -2
5 -6 2 -10 -8z"/>
<path d="M9216 7469 c-4 -39 -5 -73 -3 -76 3 -2 8 28 12 67 4 39 5 73 2 76 -2
3 -8 -27 -11 -67z"/>
<path d="M9113 7495 c0 -22 2 -30 4 -17 2 12 2 30 0 40 -3 9 -5 -1 -4 -23z"/>
<path d="M9143 7490 c0 -25 2 -35 4 -22 2 12 2 32 0 45 -2 12 -4 2 -4 -23z"/>
<path d="M9172 7505 c0 -16 2 -22 5 -12 2 9 2 23 0 30 -3 6 -5 -1 -5 -18z"/>
<path d="M2550 7498 c-12 -22 -12 -22 6 -6 10 10 15 20 12 24 -4 3 -12 -5 -18
-18z"/>
<path d="M9001 7484 c0 -11 3 -14 6 -6 3 7 2 16 -1 19 -3 4 -6 -2 -5 -13z"/>
<path d="M9242 7494 c3 -3 2 -21 -2 -41 -5 -21 -5 -32 1 -26 16 16 23 73 9 73
-8 0 -11 -2 -8 -6z"/>
<path d="M8976 7473 c-6 -14 -5 -15 5 -6 7 7 10 15 7 18 -3 3 -9 -2 -12 -12z"/>
<path d="M9888 7359 c-2 -67 0 -123 5 -126 4 -2 7 52 7 121 0 69 -2 126 -4
126 -3 0 -6 -54 -8 -121z"/>
<path d="M9022 7440 c0 -19 2 -27 5 -17 2 9 2 25 0 35 -3 9 -5 1 -5 -18z"/>
<path d="M9001 7444 c0 -11 3 -14 6 -6 3 7 2 16 -1 19 -3 4 -6 -2 -5 -13z"/>
<path d="M9181 7444 c0 -11 3 -14 6 -6 3 7 2 16 -1 19 -3 4 -6 -2 -5 -13z"/>
<path d="M8971 7404 c0 -11 3 -14 6 -6 3 7 2 16 -1 19 -3 4 -6 -2 -5 -13z"/>
<path d="M8993 7380 c0 -25 2 -35 4 -22 2 12 2 32 0 45 -2 12 -4 2 -4 -23z"/>
<path d="M9181 7404 c0 -11 3 -14 6 -6 3 7 2 16 -1 19 -3 4 -6 -2 -5 -13z"/>
<path d="M9143 7360 c0 -30 2 -43 4 -27 2 15 2 39 0 55 -2 15 -4 2 -4 -28z"/>
<path d="M9161 7390 c1 -8 5 -26 9 -40 l8 -25 1 25 c0 14 -4 32 -9 40 -9 13
-10 13 -9 0z"/>
<path d="M9121 7363 c-1 -17 -5 -33 -9 -35 -5 -1 -5 -14 -2 -28 6 -21 8 -18
15 22 4 26 5 53 2 60 -3 7 -6 -1 -6 -19z"/>
<path d="M8971 7364 c0 -11 3 -14 6 -6 3 7 2 16 -1 19 -3 4 -6 -2 -5 -13z"/>
<path d="M9015 7369 c-4 -6 -5 -12 -2 -15 2 -3 7 2 10 11 7 17 1 20 -8 4z"/>
<path d="M9062 7330 c0 -14 2 -19 5 -12 2 6 2 18 0 25 -3 6 -5 1 -5 -13z"/>
<path d="M8990 7315 c0 -8 2 -15 4 -15 2 0 6 7 10 15 3 8 1 15 -4 15 -6 0 -10
-7 -10 -15z"/>
<path d="M9092 7280 c0 -14 2 -19 5 -12 2 6 2 18 0 25 -3 6 -5 1 -5 -13z"/>
<path d="M9043 7255 c0 -22 2 -30 4 -17 2 12 2 30 0 40 -3 9 -5 -1 -4 -23z"/>
<path d="M9021 7254 c0 -11 3 -14 6 -6 3 7 2 16 -1 19 -3 4 -6 -2 -5 -13z"/>
<path d="M8947 7253 c-6 -11 -9 -118 -3 -112 6 5 16 119 11 119 -2 0 -6 -3 -8
-7z"/>
<path d="M8977 7243 c-4 -3 -7 -11 -7 -17 0 -6 5 -5 12 2 6 6 9 14 7 17 -3 3
-9 2 -12 -2z"/>
<path d="M2860 7201 c0 -5 7 -11 15 -15 8 -3 15 -1 15 3 0 5 -7 11 -15 15 -8
3 -15 1 -15 -3z"/>
<path d="M9895 6840 c0 -201 1 -283 2 -182 2 100 2 264 0 365 -1 100 -2 18 -2
-183z"/>
<path d="M9392 6840 c0 -14 2 -19 5 -12 2 6 2 18 0 25 -3 6 -5 1 -5 -13z"/>
<path d="M9382 6790 c0 -14 2 -19 5 -12 2 6 2 18 0 25 -3 6 -5 1 -5 -13z"/>
<path d="M9352 6770 c0 -14 2 -19 5 -12 2 6 2 18 0 25 -3 6 -5 1 -5 -13z"/>
<path d="M9401 6754 c0 -11 3 -14 6 -6 3 7 2 16 -1 19 -3 4 -6 -2 -5 -13z"/>
<path d="M9452 6725 c0 -16 2 -22 5 -12 2 9 2 23 0 30 -3 6 -5 -1 -5 -18z"/>
<path d="M9422 6705 c0 -16 2 -22 5 -12 2 9 2 23 0 30 -3 6 -5 -1 -5 -18z"/>
<path d="M9392 6700 c0 -14 2 -19 5 -12 2 6 2 18 0 25 -3 6 -5 1 -5 -13z"/>
<path d="M9362 6690 c0 -14 2 -19 5 -12 2 6 2 18 0 25 -3 6 -5 1 -5 -13z"/>
<path d="M9291 6674 c0 -11 3 -14 6 -6 3 7 2 16 -1 19 -3 4 -6 -2 -5 -13z"/>
<path d="M9382 6640 c0 -14 2 -19 5 -12 2 6 2 18 0 25 -3 6 -5 1 -5 -13z"/>
<path d="M9351 6634 c0 -11 3 -14 6 -6 3 7 2 16 -1 19 -3 4 -6 -2 -5 -13z"/>
<path d="M9401 6604 c0 -11 3 -14 6 -6 3 7 2 16 -1 19 -3 4 -6 -2 -5 -13z"/>
<path d="M9888 6443 c-2 -5 -1 -55 2 -113 l6 -105 2 113 c2 102 -1 126 -10
105z"/>
<path d="M9891 6143 c1 -62 6 -56 11 15 2 23 0 42 -4 42 -5 0 -7 -26 -7 -57z"/>
<path d="M9885 6010 c-4 -6 -4 -29 0 -52 8 -47 25 -34 25 19 0 33 -14 51 -25
33z"/>
<path d="M9882 5864 c-11 -12 -11 -18 -2 -29 19 -23 30 -18 30 15 0 33 -8 37
-28 14z"/>
<path d="M9890 5759 c0 -44 -4 -55 -30 -79 -41 -38 -41 -81 1 -123 23 -23 34
-44 39 -82 l8 -50 1 58 c1 42 5 57 15 57 23 0 56 50 56 84 0 39 -23 74 -53 78
-20 3 -22 9 -22 56 1 28 -3 52 -7 52 -4 0 -8 -23 -8 -51z m13 -139 c4 -33 4
-33 5 8 2 43 16 54 40 30 29 -29 1 -98 -39 -98 -19 0 -59 44 -59 66 0 18 31
47 41 37 4 -4 9 -24 12 -43z"/>
<path d="M9880 5370 c0 -5 3 -10 8 -10 4 0 6 -17 4 -39 -2 -21 1 -42 7 -45 7
-5 11 11 11 48 0 43 -3 56 -15 56 -8 0 -15 -4 -15 -10z"/>
<path d="M9901 5244 c0 -11 3 -14 6 -6 3 7 2 16 -1 19 -3 4 -6 -2 -5 -13z"/>
<path d="M9894 5075 c2 -47 1 -85 -3 -85 -3 0 -21 -13 -39 -29 -24 -23 -32
-38 -32 -64 0 -39 38 -87 68 -87 60 0 112 44 112 94 0 31 -46 86 -72 86 -12 0
-19 6 -17 18 5 51 -2 152 -11 152 -7 0 -9 -31 -6 -85z m53 -113 c21 -13 33
-60 23 -87 -20 -52 -96 -58 -118 -10 -18 40 -14 62 14 84 27 21 60 27 81 13z"/>
<path d="M9892 4918 c-22 -22 -14 -40 16 -36 19 2 27 9 27 23 0 23 -25 31 -43
13z"/>
<path d="M9585 4900 c-13 -6 -15 -9 -5 -9 8 0 22 4 30 9 18 12 2 12 -25 0z"/>
<path d="M4202 4788 c-191 -338 -542 -1072 -542 -1133 0 -5 28 53 63 130 34
77 164 346 289 598 125 251 225 457 223 457 -2 0 -17 -24 -33 -52z"/>
<path d="M3938 4778 c-36 -54 -66 -107 -55 -97 4 3 24 32 45 65 51 79 54 84
49 84 -2 0 -20 -24 -39 -52z"/>
<path d="M3776 4510 c-15 -27 -25 -50 -22 -50 8 0 59 90 54 96 -3 2 -17 -18
-32 -46z"/>
<path d="M9897 4379 c-23 -13 -22 -56 2 -69 27 -14 28 -13 47 14 12 19 13 29
5 43 -9 16 -10 16 -11 1 0 -9 -4 -19 -9 -22 -5 -4 -7 2 -4 13 6 24 -7 32 -30
20z"/>
<path d="M3486 3814 c-10 -47 -15 -88 -13 -90 2 -3 12 34 21 82 10 47 15 88
13 90 -2 3 -12 -34 -21 -82z"/>
<path d="M3462 3690 c0 -14 2 -19 5 -12 2 6 2 18 0 25 -3 6 -5 1 -5 -13z"/>
<path d="M1595 2540 c-87 -43 -120 -151 -72 -234 35 -62 68 -81 140 -81 77 0
107 19 143 93 22 42 25 60 20 95 -9 57 -43 103 -92 127 -51 25 -88 25 -139 0z
m149 -19 c44 -24 79 -96 71 -146 -22 -144 -177 -194 -268 -86 -110 131 47 316
197 232z"/>
<path d="M8342 2400 l1 -85 7 65 c3 36 3 74 -1 85 -4 11 -7 -17 -7 -65z"/>
<path d="M7638 2253 c7 -3 16 -2 19 1 4 3 -2 6 -13 5 -11 0 -14 -3 -6 -6z"/>
<path d="M8073 2253 c9 -2 23 -2 30 0 6 3 -1 5 -18 5 -16 0 -22 -2 -12 -5z"/>
<path d="M8253 2253 c9 -2 25 -2 35 0 9 3 1 5 -18 5 -19 0 -27 -2 -17 -5z"/>
<path d="M10018 2153 c12 -2 32 -2 45 0 12 2 2 4 -23 4 -25 0 -35 -2 -22 -4z"/>
<path d="M10123 2143 c9 -2 25 -2 35 0 9 3 1 5 -18 5 -19 0 -27 -2 -17 -5z"/>
<path d="M10203 2133 c9 -2 23 -2 30 0 6 3 -1 5 -18 5 -16 0 -22 -2 -12 -5z"/>
<path d="M5212 899 c-2 -360 9 -899 18 -899 8 0 2 609 -9 960 l-8 235 -1 -296z"/>
<path d="M5351 1174 c0 -11 3 -14 6 -6 3 7 2 16 -1 19 -3 4 -6 -2 -5 -13z"/>
<path d="M5641 1144 c0 -11 3 -14 6 -6 3 7 2 16 -1 19 -3 4 -6 -2 -5 -13z"/>
<path d="M5362 1130 c0 -14 2 -19 5 -12 2 6 2 18 0 25 -3 6 -5 1 -5 -13z"/>
<path d="M5371 1084 c0 -11 3 -14 6 -6 3 7 2 16 -1 19 -3 4 -6 -2 -5 -13z"/>
<path d="M5381 1055 c-1 -6 22 -114 49 -240 57 -257 145 -670 163 -758 6 -31
16 -57 20 -57 5 0 7 10 5 22 -3 13 -26 117 -52 233 -26 116 -74 332 -106 480
-60 268 -77 340 -79 320z"/>
<path d="M5001 914 c-13 -52 -21 -97 -19 -99 2 -3 15 38 27 91 13 52 21 97 19
99 -2 3 -15 -38 -27 -91z"/>
<path d="M5710 980 c6 -11 13 -20 16 -20 2 0 0 9 -6 20 -6 11 -13 20 -16 20
-2 0 0 -9 6 -20z"/>
<path d="M5570 965 c0 -5 5 -17 10 -25 5 -8 10 -10 10 -5 0 6 -5 17 -10 25 -5
8 -10 11 -10 5z"/>
<path d="M5740 930 c6 -11 13 -20 16 -20 2 0 0 9 -6 20 -6 11 -13 20 -16 20
-2 0 0 -9 6 -20z"/>
<path d="M5590 917 c0 -3 24 -63 53 -134 60 -143 190 -463 265 -653 27 -68 54
-126 60 -128 6 -2 -10 50 -37 115 -27 65 -88 215 -136 333 -88 215 -193 461
-201 469 -2 2 -4 2 -4 -2z"/>
<path d="M5825 808 c35 -51 86 -129 113 -173 164 -269 335 -556 353 -593 12
-24 23 -41 26 -38 19 19 -521 896 -553 896 -2 0 25 -42 61 -92z"/>
<path d="M8335 890 c3 -5 14 -10 23 -10 15 0 15 2 2 10 -20 13 -33 13 -25 0z"/>
<path d="M6710 870 c6 -11 13 -20 16 -20 2 0 0 9 -6 20 -6 11 -13 20 -16 20
-2 0 0 -9 6 -20z"/>
<path d="M4972 780 c0 -14 2 -19 5 -12 2 6 2 18 0 25 -3 6 -5 1 -5 -13z"/>
<path d="M4962 730 c0 -14 2 -19 5 -12 2 6 2 18 0 25 -3 6 -5 1 -5 -13z"/>
<path d="M6752 730 c0 -14 2 -19 5 -12 2 6 2 18 0 25 -3 6 -5 1 -5 -13z"/>
<path d="M4952 670 c0 -14 2 -19 5 -12 2 6 2 18 0 25 -3 6 -5 1 -5 -13z"/>
<path d="M8180 645 c25 -13 50 -24 55 -24 6 0 -10 11 -35 24 -25 13 -49 24
-55 24 -5 0 10 -11 35 -24z"/>
<path d="M6762 625 c0 -16 2 -22 5 -12 2 9 2 23 0 30 -3 6 -5 -1 -5 -18z"/>
<path d="M4942 620 c0 -14 2 -19 5 -12 2 6 2 18 0 25 -3 6 -5 1 -5 -13z"/>
<path d="M8400 562 c8 -5 26 -13 40 -16 17 -5 20 -4 10 2 -8 5 -26 13 -40 16
-17 5 -20 4 -10 -2z"/>
<path d="M6772 510 c0 -19 2 -27 5 -17 2 9 2 25 0 35 -3 9 -5 1 -5 -18z"/>
<path d="M8570 500 c8 -5 22 -9 30 -9 10 0 8 3 -5 9 -27 12 -43 12 -25 0z"/>
<path d="M4901 444 c0 -11 3 -14 6 -6 3 7 2 16 -1 19 -3 4 -6 -2 -5 -13z"/>
<path d="M6782 440 c0 -14 2 -19 5 -12 2 6 2 18 0 25 -3 6 -5 1 -5 -13z"/>
<path d="M4891 394 c0 -11 3 -14 6 -6 3 7 2 16 -1 19 -3 4 -6 -2 -5 -13z"/>
<path d="M6429 313 c34 -51 65 -93 67 -93 6 0 4 3 -51 90 -23 36 -50 72 -60
80 -10 8 10 -27 44 -77z"/>
<path d="M10088 393 c7 -3 16 -2 19 1 4 3 -2 6 -13 5 -11 0 -14 -3 -6 -6z"/>
<path d="M4882 350 c0 -14 2 -19 5 -12 2 6 2 18 0 25 -3 6 -5 1 -5 -13z"/>
<path d="M4871 294 c0 -11 3 -14 6 -6 3 7 2 16 -1 19 -3 4 -6 -2 -5 -13z"/>
<path d="M9175 290 c27 -12 43 -12 25 0 -8 5 -22 9 -30 9 -10 0 -8 -3 5 -9z"/>
<path d="M9269 259 c30 -10 56 -17 58 -15 5 5 -86 36 -101 35 -6 0 13 -9 43
-20z"/>
<path d="M4861 244 c0 -11 3 -14 6 -6 3 7 2 16 -1 19 -3 4 -6 -2 -5 -13z"/>
<path d="M6641 225 c-56 -51 -64 -77 -48 -155 l13 -65 132 -3 c73 -1 132 0
132 3 0 16 -44 164 -56 187 -19 37 -66 68 -103 68 -21 0 -43 -11 -70 -35z"/>
<path d="M9355 230 c27 -12 43 -12 25 0 -8 5 -22 9 -30 9 -10 0 -8 -3 5 -9z"/>
<path d="M9415 210 c27 -12 43 -12 25 0 -8 5 -22 9 -30 9 -10 0 -8 -3 5 -9z"/>
<path d="M6510 190 c6 -11 13 -20 16 -20 2 0 0 9 -6 20 -6 11 -13 20 -16 20
-2 0 0 -9 6 -20z"/>
<path d="M9505 180 c28 -10 57 -18 65 -18 8 0 -7 8 -35 18 -27 10 -57 18 -65
18 -8 0 8 -8 35 -18z"/>
<path d="M4841 144 c0 -11 3 -14 6 -6 3 7 2 16 -1 19 -3 4 -6 -2 -5 -13z"/>
<path d="M4826 79 c-3 -17 -5 -43 -5 -58 1 -14 5 -2 10 28 10 58 6 83 -5 30z"/>
<path d="M9788 93 c7 -3 16 -2 19 1 4 3 -2 6 -13 5 -11 0 -14 -3 -6 -6z"/>
<path d="M2826 75 c-11 -8 -15 -15 -9 -15 6 0 16 7 23 15 16 19 11 19 -14 0z"/>
<path d="M2765 30 c3 -6 -4 -10 -17 -10 -13 0 -30 -5 -38 -10 -11 -7 -6 -10
21 -10 41 0 71 23 44 34 -9 3 -13 2 -10 -4z"/>
<path d="M10105 10 c19 -8 113 -14 104 -6 -2 2 -31 6 -64 9 -38 4 -53 3 -40
-3z"/>
</g>
</svg>
